<svg width="24" height="20" viewBox="0 0 24 20" fill="none" xmlns="http://www.w3.org/2000/svg">
<path d="M23.8381 10.8825C23.7313 11.1629 23.5746 11.4175 23.3772 11.6317L16.323 19.3233C15.9252 19.7566 15.3857 20 14.8232 20C14.2606 20 13.7212 19.7566 13.3234 19.3233C12.9256 18.8901 12.7022 18.3024 12.7022 17.6897C12.7022 17.0769 12.9256 16.4893 13.3234 16.056L16.7623 12.3063L2.11734 12.3063C1.55579 12.3063 1.01723 12.0633 0.620155 11.6308C0.223076 11.1983 -4.10377e-07 10.6117 -4.37114e-07 10C-4.63851e-07 9.38832 0.223076 8.8017 0.620155 8.36918C1.01723 7.93666 1.55579 7.69367 2.11734 7.69367L16.7623 7.69367L13.3199 3.94397C12.9221 3.5107 12.6986 2.92306 12.6986 2.31033C12.6986 1.69759 12.9221 1.10995 13.3199 0.676681C13.7176 0.24341 14.2571 1.28415e-06 14.8196 1.25956e-06C15.3822 1.23497e-06 15.9217 0.243409 16.3194 0.676681L23.3772 8.36443C23.5746 8.5787 23.7313 8.8333 23.8381 9.11364C23.945 9.39398 24 9.69453 24 9.99808C24 10.3016 23.945 10.6022 23.8381 10.8825Z" fill="#101828"/>
</svg>
