<svg width="24" height="20" viewBox="0 0 24 20" fill="none" xmlns="http://www.w3.org/2000/svg">
<path d="M0.161879 10.8825C0.268746 11.1629 0.425364 11.4175 0.622757 11.6317L7.67704 19.3233C8.07481 19.7566 8.6143 20 9.17683 20C9.73936 20 10.2788 19.7566 10.6766 19.3233C11.0744 18.8901 11.2978 18.3024 11.2978 17.6897C11.2978 17.0769 11.0744 16.4893 10.6766 16.056L7.23769 12.3063L21.8827 12.3063C22.4442 12.3063 22.9828 12.0633 23.3798 11.6308C23.7769 11.1983 24 10.6117 24 10C24 9.38832 23.7769 8.8017 23.3798 8.36918C22.9828 7.93666 22.4442 7.69367 21.8827 7.69367L7.23769 7.69367L10.6801 3.94397C11.0779 3.5107 11.3014 2.92306 11.3014 2.31033C11.3014 1.69759 11.0779 1.10995 10.6801 0.676681C10.2824 0.24341 9.74289 1.28415e-06 9.18036 1.25956e-06C8.61783 1.23497e-06 8.07834 0.243409 7.68057 0.676681L0.622757 8.36443C0.425364 8.5787 0.268746 8.8333 0.161879 9.11364C0.0550122 9.39398 -1.45688e-06 9.69453 -1.47015e-06 9.99808C-1.48342e-06 10.3016 0.0550122 10.6022 0.161879 10.8825Z" fill="#101828"/>
</svg>
