<svg width="20" height="21" viewBox="0 0 20 21" fill="none" xmlns="http://www.w3.org/2000/svg">
<path d="M17.3988 10.9759C17.332 11.1511 17.2341 11.3102 17.1108 11.4441L12.7018 16.2514C12.4532 16.5222 12.1161 16.6743 11.7645 16.6743C11.4129 16.6743 11.0757 16.5222 10.8271 16.2514C10.5785 15.9806 10.4388 15.6133 10.4388 15.2304C10.4388 14.8474 10.5785 14.4801 10.8271 14.2093L12.9764 11.8658L3.82334 11.8658C3.47237 11.8658 3.13577 11.7139 2.8876 11.4436C2.63942 11.1733 2.5 10.8066 2.5 10.4243C2.5 10.042 2.63942 9.67538 2.8876 9.40506C3.13577 9.13473 3.47237 8.98286 3.82334 8.98286L12.9764 8.98286L10.8249 6.6393C10.5763 6.36851 10.4366 6.00123 10.4366 5.61827C10.4366 5.23531 10.5763 4.86803 10.8249 4.59724C11.0735 4.32645 11.4107 4.17432 11.7623 4.17432C12.1139 4.17432 12.451 4.32645 12.6996 4.59724L17.1108 9.40209C17.2341 9.536 17.332 9.69513 17.3988 9.87034C17.4656 10.0456 17.5 10.2334 17.5 10.4231C17.5 10.6128 17.4656 10.8007 17.3988 10.9759Z" fill="#667085"/>
</svg>
