<svg width="64" height="65" viewBox="0 0 64 65" fill="none" xmlns="http://www.w3.org/2000/svg">
<g clip-path="url(#clip0_911_18882)">
<rect x="0.5" y="0.711914" width="63" height="63" rx="7.5" fill="#FFFEFD"/>
<rect x="0.5" y="0.711914" width="63" height="63" rx="7.5" stroke="#BEC3C8"/>
<path d="M23.1214 32.8738C23.2016 33.0841 23.319 33.275 23.4671 33.4357L28.7578 39.2044C29.0561 39.5294 29.4607 39.7119 29.8826 39.7119C30.3045 39.7119 30.7091 39.5294 31.0075 39.2044C31.3058 38.8795 31.4734 38.4387 31.4734 37.9792C31.4734 37.5196 31.3058 37.0789 31.0075 36.7539L28.4283 33.9417L39.412 33.9417C39.8332 33.9417 40.2371 33.7594 40.5349 33.435C40.8327 33.1106 41 32.6707 41 32.2119C41 31.7532 40.8327 31.3132 40.5349 30.9888C40.2371 30.6644 39.8332 30.4822 39.412 30.4822L28.4283 30.4822L31.0101 27.6699C31.3084 27.3449 31.476 26.9042 31.476 26.4447C31.476 25.9851 31.3084 25.5444 31.0101 25.2194C30.7118 24.8945 30.3072 24.7119 29.8853 24.7119C29.4634 24.7119 29.0588 24.8945 28.7604 25.2194L23.4671 30.9852C23.319 31.1459 23.2016 31.3369 23.1214 31.5471C23.0413 31.7574 23 31.9828 23 32.2105C23 32.4381 23.0413 32.6635 23.1214 32.8738Z" fill="#101828"/>
</g>
<defs>
<clipPath id="clip0_911_18882">
<rect width="64" height="64" fill="white" transform="translate(0 0.211914)"/>
</clipPath>
</defs>
</svg>
