<svg width="64" height="65" viewBox="0 0 64 65" fill="none" xmlns="http://www.w3.org/2000/svg">
<g opacity="0.8">
<g clip-path="url(#clip0_911_18886)">
<rect y="0.211914" width="64" height="64" fill="#FFFEFD"/>
<path d="M40.8786 32.8738C40.7984 33.0841 40.681 33.275 40.5329 33.4357L35.2422 39.2044C34.9439 39.5294 34.5393 39.7119 34.1174 39.7119C33.6955 39.7119 33.2909 39.5294 32.9925 39.2044C32.6942 38.8795 32.5266 38.4387 32.5266 37.9792C32.5266 37.5196 32.6942 37.0789 32.9925 36.7539L35.5717 33.9417L24.588 33.9417C24.1668 33.9417 23.7629 33.7594 23.4651 33.435C23.1673 33.1106 23 32.6707 23 32.2119C23 31.7532 23.1673 31.3132 23.4651 30.9888C23.7629 30.6644 24.1668 30.4822 24.588 30.4822L35.5717 30.4822L32.9899 27.6699C32.6916 27.3449 32.524 26.9042 32.524 26.4447C32.524 25.9851 32.6916 25.5444 32.9899 25.2194C33.2882 24.8945 33.6928 24.7119 34.1147 24.7119C34.5366 24.7119 34.9412 24.8945 35.2396 25.2194L40.5329 30.9852C40.681 31.1459 40.7984 31.3369 40.8786 31.5471C40.9587 31.7574 41 31.9828 41 32.2105C41 32.4381 40.9587 32.6635 40.8786 32.8738Z" fill="#101828"/>
</g>
<rect x="0.5" y="0.711914" width="63" height="63" rx="7.5" stroke="#BEC3C8"/>
</g>
<defs>
<clipPath id="clip0_911_18886">
<rect y="0.211914" width="64" height="64" rx="8" fill="white"/>
</clipPath>
</defs>
</svg>
