<svg width="20" height="20" viewBox="0 0 20 20" fill="none" xmlns="http://www.w3.org/2000/svg">
<path d="M3.125 10.3125C3.125 11.7341 3.54654 13.1237 4.33631 14.3057C5.12608 15.4876 6.24862 16.4089 7.56196 16.9529C8.87531 17.4969 10.3205 17.6392 11.7147 17.3619C13.1089 17.0846 14.3896 16.4 15.3948 15.3948C16.4 14.3896 17.0846 13.1089 17.3619 11.7147C17.6392 10.3205 17.4969 8.87531 16.9529 7.56196C16.4089 6.24862 15.4876 5.12608 14.3057 4.33631C13.1237 3.54654 11.7341 3.125 10.3125 3.125C8.4069 3.12711 6.57996 3.88504 5.2325 5.2325C3.88504 6.57996 3.12711 8.4069 3.125 10.3125ZM15.9028 10.3125C15.9028 11.4182 15.5749 12.499 14.9606 13.4183C14.3464 14.3376 13.4733 15.0541 12.4518 15.4772C11.4303 15.9004 10.3063 16.0111 9.22189 15.7954C8.13748 15.5797 7.14139 15.0472 6.35958 14.2654C5.57776 13.4836 5.04534 12.4875 4.82964 11.4031C4.61394 10.3187 4.72464 9.19468 5.14776 8.17319C5.57087 7.1517 6.28739 6.27862 7.20671 5.66435C8.12602 5.05009 9.20685 4.72222 10.3125 4.72222C11.7946 4.72381 13.2156 5.31329 14.2637 6.36133C15.3117 7.40936 15.9012 8.83035 15.9028 10.3125ZM10.3125 5.78704C10.5243 5.78704 10.7274 5.87118 10.8772 6.02094C11.027 6.17071 11.1111 6.37384 11.1111 6.58565L11.1111 10.3125C11.1111 10.5243 11.027 10.7274 10.8772 10.8772C10.7274 11.027 10.5243 11.1111 10.3125 11.1111L6.58565 11.1111C6.37384 11.1111 6.17071 11.027 6.02094 10.8772C5.87118 10.7274 5.78704 10.5243 5.78704 10.3125C5.78704 10.1007 5.87118 9.89756 6.02094 9.7478C6.17071 9.59803 6.37384 9.51389 6.58565 9.51389L9.51389 9.51389L9.51389 6.58565C9.51389 6.37384 9.59803 6.17071 9.74779 6.02094C9.89756 5.87118 10.1007 5.78704 10.3125 5.78704Z" fill="#175CD3"/>
</svg>
