<svg width="20" height="20" viewBox="0 0 20 20" fill="none" xmlns="http://www.w3.org/2000/svg">
<path d="M1.5625 10C1.5625 11.6688 2.05735 13.3001 2.98447 14.6876C3.9116 16.0752 5.22936 17.1566 6.77111 17.7952C8.31286 18.4338 10.0094 18.6009 11.6461 18.2754C13.2828 17.9498 14.7862 17.1462 15.9662 15.9662C17.1462 14.7862 17.9498 13.2828 18.2754 11.6461C18.6009 10.0094 18.4338 8.31286 17.7952 6.77111C17.1566 5.22935 16.0752 3.91159 14.6876 2.98447C13.3001 2.05735 11.6688 1.5625 10 1.5625C7.763 1.56498 5.61833 2.45472 4.03653 4.03652C2.45473 5.61832 1.56498 7.76299 1.5625 10ZM16.5625 10C16.5625 11.2979 16.1776 12.5667 15.4565 13.6459C14.7354 14.7251 13.7105 15.5663 12.5114 16.063C11.3122 16.5597 9.99272 16.6896 8.71972 16.4364C7.44672 16.1832 6.27739 15.5582 5.35961 14.6404C4.44183 13.7226 3.81681 12.5533 3.5636 11.2803C3.31038 10.0073 3.44034 8.68778 3.93704 7.48864C4.43374 6.2895 5.27487 5.26457 6.35407 4.54348C7.43327 3.82238 8.70206 3.4375 10 3.4375C11.7399 3.43936 13.408 4.13136 14.6383 5.36166C15.8686 6.59197 16.5606 8.26008 16.5625 10ZM10 4.6875C10.2486 4.6875 10.4871 4.78627 10.6629 4.96208C10.8387 5.1379 10.9375 5.37636 10.9375 5.625L10.9375 10C10.9375 10.2486 10.8387 10.4871 10.6629 10.6629C10.4871 10.8387 10.2486 10.9375 10 10.9375L5.625 10.9375C5.37636 10.9375 5.1379 10.8387 4.96209 10.6629C4.78627 10.4871 4.6875 10.2486 4.6875 10C4.6875 9.75136 4.78627 9.5129 4.96209 9.33708C5.1379 9.16127 5.37636 9.0625 5.625 9.0625L9.0625 9.0625L9.0625 5.625C9.0625 5.37636 9.16127 5.1379 9.33709 4.96208C9.5129 4.78627 9.75136 4.6875 10 4.6875Z" fill="white"/>
</svg>
