<svg width="16" height="16" viewBox="0 0 16 16" fill="none" xmlns="http://www.w3.org/2000/svg">
<path d="M15.8125 9.875V14.25C15.8125 14.6644 15.6479 15.0618 15.3549 15.3549C15.0618 15.6479 14.6644 15.8125 14.25 15.8125H1.75C1.3356 15.8125 0.938171 15.6479 0.645146 15.3549C0.35212 15.0618 0.1875 14.6644 0.1875 14.25V9.875C0.1875 9.62636 0.286272 9.3879 0.462087 9.21209C0.637903 9.03627 0.87636 8.9375 1.125 8.9375C1.37364 8.9375 1.6121 9.03627 1.78791 9.21209C1.96373 9.3879 2.0625 9.62636 2.0625 9.875V13.9375H13.9375V9.875C13.9375 9.62636 14.0363 9.3879 14.2121 9.21209C14.3879 9.03627 14.6264 8.9375 14.875 8.9375C15.1236 8.9375 15.3621 9.03627 15.5379 9.21209C15.7137 9.3879 15.8125 9.62636 15.8125 9.875ZM7.33672 10.5383C7.42382 10.6257 7.52731 10.695 7.64126 10.7423C7.75522 10.7897 7.87739 10.814 8.00078 10.814C8.12417 10.814 8.24634 10.7897 8.3603 10.7423C8.47425 10.695 8.57775 10.6257 8.66484 10.5383L11.7898 7.41328C11.966 7.23716 12.0649 6.99829 12.0649 6.74922C12.0649 6.50015 11.966 6.26128 11.7898 6.08516C11.6137 5.90904 11.3749 5.81009 11.1258 5.81009C10.8767 5.81009 10.6378 5.90904 10.4617 6.08516L8.9375 7.60938V1.125C8.9375 0.87636 8.83873 0.637903 8.66291 0.462087C8.4871 0.286272 8.24864 0.1875 8 0.1875C7.75136 0.1875 7.5129 0.286272 7.33709 0.462087C7.16127 0.637903 7.0625 0.87636 7.0625 1.125V7.60938L5.53828 6.08672C5.36216 5.9106 5.12329 5.81166 4.87422 5.81166C4.62515 5.81166 4.38628 5.9106 4.21016 6.08672C4.03404 6.26284 3.93509 6.50171 3.93509 6.75078C3.93509 6.99985 4.03404 7.23872 4.21016 7.41484L7.33672 10.5383Z" fill="#175CD3"/>
</svg>
