<svg width="20" height="20" viewBox="0 0 20 20" fill="none" xmlns="http://www.w3.org/2000/svg">
<path d="M9.61972 14.3686L3.09946 7.16126C2.91572 6.95816 2.8125 6.6827 2.8125 6.39548C2.8125 6.10825 2.91572 5.83279 3.09946 5.6297C3.2832 5.4266 3.53239 5.3125 3.79224 5.3125C4.05208 5.3125 4.30128 5.4266 4.48501 5.6297L10.3117 12.0722L16.14 5.6315C16.231 5.53094 16.339 5.45116 16.4578 5.39674C16.5767 5.34231 16.7041 5.3143 16.8328 5.3143C16.9614 5.3143 17.0888 5.34231 17.2077 5.39674C17.3266 5.45116 17.4346 5.53094 17.5255 5.6315C17.6165 5.73206 17.6887 5.85145 17.7379 5.98284C17.7872 6.11424 17.8125 6.25506 17.8125 6.39728C17.8125 6.5395 17.7872 6.68033 17.7379 6.81172C17.6887 6.94311 17.6165 7.0625 17.5255 7.16306L11.0053 14.3704C10.9143 14.4711 10.8063 14.5509 10.6873 14.6053C10.5684 14.6597 10.4409 14.6877 10.3122 14.6875C10.1834 14.6873 10.056 14.6591 9.93719 14.6044C9.81836 14.5496 9.71048 14.4695 9.61972 14.3686Z" fill="#101828"/>
</svg>
