<svg width="20" height="21" viewBox="0 0 20 21" fill="none" xmlns="http://www.w3.org/2000/svg">
<path d="M2 15.2334C2 16.9884 3.43182 18.4243 5.18182 18.4243H13.3637C15.1137 18.4243 16.5455 16.9884 16.5455 15.2334V10.2192C16.5455 9.71774 16.1364 9.30749 15.6364 9.30749C15.1364 9.30749 14.7273 9.71774 14.7273 10.2192V15.2334C14.7273 15.9855 14.1137 16.6009 13.3637 16.6009H5.18182C4.43182 16.6009 3.81818 15.9855 3.81818 15.2334V7.02828C3.81818 6.27615 4.43182 5.66076 5.18182 5.66076H10.1818C10.6818 5.66076 11.0909 5.25051 11.0909 4.74908C11.0909 4.24766 10.6818 3.8374 10.1818 3.8374H5.18182C3.43182 3.8374 2 5.2733 2 7.02828V15.2334Z" fill="#667085"/>
<path d="M18.0007 3.336C18.0007 3.26762 18.0007 3.22204 17.978 3.15366C17.978 3.13087 17.978 3.13087 17.9552 3.10808C17.9552 3.06249 17.9325 3.01691 17.9098 2.99412C17.9098 2.97132 17.8871 2.94853 17.8871 2.94853C17.8643 2.90295 17.8416 2.88016 17.8416 2.83457C17.7734 2.7434 17.6825 2.65224 17.5916 2.58386C17.5689 2.56107 17.5234 2.53828 17.5007 2.53828C17.478 2.53828 17.4552 2.51548 17.4325 2.51548C17.3871 2.49269 17.3643 2.49269 17.3189 2.4699L17.2734 2.44711C17.228 2.44711 17.1598 2.42432 17.1143 2.42432H17.0916H12.9098C12.4098 2.42432 12.0007 2.83457 12.0007 3.336C12.0007 3.83742 12.4098 4.24768 12.9098 4.24768H14.8871L9.02342 10.128C8.68251 10.4927 8.68251 11.0625 9.04614 11.4272C9.38705 11.769 9.95524 11.769 10.2961 11.4272L16.1825 5.54682V7.52973C16.1825 8.03115 16.5916 8.44141 17.0916 8.44141C17.5916 8.44141 18.0007 8.03115 18.0007 7.52973V3.336Z" fill="#667085"/>
</svg>
