<svg width="24" height="24" viewBox="0 0 24 24" fill="none" xmlns="http://www.w3.org/2000/svg">
<g clip-path="url(#clip0_2_5371)">
<path fill-rule="evenodd" clip-rule="evenodd" d="M12 0C18.6274 0 24 5.37258 24 12C24 17.9895 19.6118 22.954 13.875 23.8542V15.4688H16.6711V15.4687L17.2031 12.0001V12H13.875V9.74912C13.875 8.80014 14.34 7.87506 15.8306 7.87506H17.3437V7.875V4.92194V4.92187C17.3437 4.92187 15.9705 4.6875 14.6576 4.6875C12.0879 4.6875 10.3527 6.14758 10.1458 8.8082C10.132 8.98557 10.125 9.16828 10.125 9.35625V12H7.07812V15.4687L7.07812 15.4688H10.125L10.125 23.8542C4.3882 22.954 0 17.9895 0 12C0 5.37258 5.37258 0 12 0Z" fill="#FFFEFD"/>
</g>
<defs>
<clipPath id="clip0_2_5371">
<rect width="24" height="24" fill="white"/>
</clipPath>
</defs>
</svg>
