<svg width="20" height="20" viewBox="0 0 20 20" fill="none" xmlns="http://www.w3.org/2000/svg">
<path d="M17.3988 10.5516C17.332 10.7268 17.2341 10.8859 17.1108 11.0198L12.7018 15.8271C12.4532 16.0979 12.1161 16.25 11.7645 16.25C11.4129 16.25 11.0757 16.0979 10.8271 15.8271C10.5785 15.5563 10.4388 15.189 10.4388 14.806C10.4388 14.4231 10.5785 14.0558 10.8271 13.785L12.9764 11.4415L3.82334 11.4415C3.47237 11.4415 3.13577 11.2896 2.8876 11.0193C2.63942 10.7489 2.5 10.3823 2.5 10C2.5 9.6177 2.63942 9.25106 2.8876 8.98074C3.13577 8.71041 3.47237 8.55855 3.82334 8.55855L12.9764 8.55855L10.8249 6.21498C10.5763 5.94419 10.4366 5.57691 10.4366 5.19395C10.4366 4.81099 10.5763 4.44372 10.8249 4.17292C11.0735 3.90213 11.4107 3.75 11.7623 3.75C12.1139 3.75 12.451 3.90213 12.6996 4.17292L17.1108 8.97777C17.2341 9.11169 17.332 9.27081 17.3988 9.44602C17.4656 9.62123 17.5 9.80908 17.5 9.9988C17.5 10.1885 17.4656 10.3764 17.3988 10.5516Z" fill="#101828"/>
</svg>
