<svg width="16" height="16" viewBox="0 0 16 16" fill="none" xmlns="http://www.w3.org/2000/svg">
<path d="M0 12.8091C0 14.5641 1.43182 16 3.18182 16H11.3637C13.1137 16 14.5455 14.5641 14.5455 12.8091V7.79485C14.5455 7.29343 14.1364 6.88317 13.6364 6.88317C13.1364 6.88317 12.7273 7.29343 12.7273 7.79485V12.8091C12.7273 13.5612 12.1137 14.1766 11.3637 14.1766H3.18182C2.43182 14.1766 1.81818 13.5612 1.81818 12.8091V4.60397C1.81818 3.85183 2.43182 3.23645 3.18182 3.23645H8.18183C8.68183 3.23645 9.09092 2.82619 9.09092 2.32477C9.09092 1.82334 8.68183 1.41309 8.18183 1.41309H3.18182C1.43182 1.41309 0 2.84898 0 4.60397V12.8091Z" fill="#101828"/>
<path d="M16.0007 0.911681C16.0007 0.843305 16.0007 0.797721 15.978 0.729345C15.978 0.706553 15.978 0.706553 15.9552 0.683761C15.9552 0.638177 15.9325 0.592592 15.9098 0.5698C15.9098 0.547008 15.8871 0.524217 15.8871 0.524217C15.8643 0.478633 15.8416 0.455841 15.8416 0.410257C15.7734 0.319089 15.6825 0.22792 15.5916 0.159544C15.5689 0.136752 15.5234 0.11396 15.5007 0.11396C15.478 0.11396 15.4552 0.0911682 15.4325 0.0911682C15.3871 0.0683762 15.3643 0.0683762 15.3189 0.0455842L15.2734 0.0227921C15.228 0.0227921 15.1598 0 15.1143 0H15.0916H10.9098C10.4098 0 10.0007 0.410256 10.0007 0.911681C10.0007 1.41311 10.4098 1.82336 10.9098 1.82336H12.8871L7.02342 7.7037C6.68251 8.06837 6.68251 8.63818 7.04614 9.00285C7.38705 9.34473 7.95524 9.34473 8.29615 9.00285L14.1825 3.12251V5.10541C14.1825 5.60684 14.5916 6.01709 15.0916 6.01709C15.5916 6.01709 16.0007 5.60684 16.0007 5.10541V0.911681Z" fill="#101828"/>
</svg>
