<svg width="24" height="24" viewBox="0 0 24 24" fill="none" xmlns="http://www.w3.org/2000/svg">
<path fill-rule="evenodd" clip-rule="evenodd" d="M7.05242 0.0718667C8.3323 0.0137476 8.741 0 12 0C15.259 0 15.6676 0.0137476 16.9475 0.0718667C18.2248 0.129844 19.0971 0.331743 19.8605 0.626985C20.6496 0.932133 21.3188 1.34048 21.9859 2.0044C22.6531 2.66836 23.0633 3.33436 23.37 4.11963C23.6667 4.8793 23.8695 5.74739 23.9278 7.01857C23.9862 8.29235 24 8.69904 24 11.9424C24 15.1858 23.9862 15.5925 23.9278 16.8662C23.8695 18.1374 23.6667 19.0055 23.37 19.7651C23.0633 20.5505 22.6531 21.2165 21.9859 21.8804C21.3188 22.5443 20.6496 22.9526 19.8605 23.2579C19.0971 23.5531 18.2248 23.755 16.9475 23.813C15.6676 23.8711 15.259 23.8848 12 23.8848C8.741 23.8848 8.3323 23.8711 7.05242 23.813C5.77511 23.755 4.90283 23.5531 4.1395 23.2579C3.35044 22.9526 2.68118 22.5443 2.01406 21.8804C1.3469 21.2165 0.936629 20.5504 0.629961 19.7651C0.333296 19.0055 0.13047 18.1374 0.0721656 16.8662C0.0137662 15.5925 0 15.1858 0 11.9424C0 8.699 0.0137662 8.29235 0.0721656 7.01857C0.13047 5.74739 0.333296 4.8793 0.629961 4.11963C0.936629 3.33436 1.3469 2.66836 2.01406 2.0044C2.68118 1.34048 3.35044 0.932133 4.1395 0.626985C4.90283 0.331743 5.77511 0.129844 7.05242 0.0718667ZM16.8474 2.22037C15.582 2.16291 15.2025 2.15078 11.9984 2.15078C8.79423 2.15078 8.41473 2.16291 7.14933 2.22037C5.97939 2.27351 5.34395 2.46806 4.9211 2.63161C4.36102 2.84825 3.96123 3.10704 3.54134 3.52497C3.12144 3.94284 2.86136 4.34067 2.64367 4.89811C2.47938 5.31893 2.28389 5.95127 2.23049 7.11564C2.17276 8.37492 2.16057 8.75265 2.16057 11.9414C2.16057 15.1302 2.17276 15.5079 2.23049 16.7672C2.28389 17.9315 2.47938 18.5639 2.64367 18.9847C2.86136 19.5421 3.12144 19.94 3.54134 20.3578C3.96123 20.7758 4.36102 21.0346 4.9211 21.2512C5.34395 21.4147 5.97939 21.6093 7.14938 21.6624C8.41454 21.7198 8.79399 21.732 11.9984 21.732C15.2028 21.732 15.5822 21.7198 16.8474 21.6624C18.0174 21.6093 18.6528 21.4147 19.0756 21.2512C19.6357 21.0346 20.0355 20.7758 20.4554 20.3578C20.8753 19.94 21.1354 19.5421 21.3531 18.9847C21.5174 18.5639 21.7129 17.9315 21.7663 16.7671C21.824 15.5079 21.8362 15.1302 21.8362 11.9414C21.8362 8.75265 21.824 8.37492 21.7663 7.11564C21.7129 5.95127 21.5174 5.31893 21.3531 4.89811C21.1354 4.34067 20.8753 3.94284 20.4554 3.52492C20.0355 3.10704 19.6357 2.84825 19.0756 2.63161C18.6528 2.46806 18.0174 2.27351 16.8474 2.22037ZM19.8432 5.56315C19.8432 6.35464 19.1987 6.99622 18.4037 6.99622C17.6086 6.99622 16.9641 6.35464 16.9641 5.56315C16.9641 4.77167 17.6086 4.13009 18.4037 4.13009C19.1987 4.13009 19.8432 4.77167 19.8432 5.56315ZM11.9978 15.9216C9.78865 15.9216 7.99775 14.1393 7.99775 11.9408C7.99775 9.74229 9.78865 7.96003 11.9978 7.96003C14.2069 7.96003 15.9978 9.74229 15.9978 11.9408C15.9978 14.1393 14.2069 15.9216 11.9978 15.9216ZM11.9994 5.80926C8.59609 5.80926 5.83717 8.55489 5.83717 11.9418C5.83717 15.3288 8.59609 18.0744 11.9994 18.0744C15.4026 18.0744 18.1615 15.3288 18.1615 11.9418C18.1615 8.55489 15.4026 5.80926 11.9994 5.80926Z" fill="#FFFEFD"/>
</svg>
