<svg width="20" height="20" viewBox="0 0 20 20" fill="none" xmlns="http://www.w3.org/2000/svg">
<path d="M14.7691 3.74067C13.5448 2.51632 11.9123 1.875 10.2215 1.875C8.47248 1.875 6.89832 2.57463 5.67397 3.74067C4.44963 4.96502 3.75 6.53918 3.75 8.28825C3.75 9.10448 3.98321 10.0956 4.50793 11.2034C4.97435 12.1945 5.55737 13.1856 6.257 14.1768C6.95662 15.1096 7.65625 15.9258 8.35588 16.5089C8.70569 16.8004 9.0555 17.0336 9.34702 17.2085C9.69683 17.3834 9.98834 17.5 10.2215 17.5C10.4548 17.5 10.7463 17.3834 11.0961 17.2085C11.3876 17.0336 11.7374 16.8004 12.0872 16.5089C12.7868 15.9258 13.4865 15.0513 14.1861 14.1768C14.8857 13.1856 15.5271 12.1362 15.9352 11.2034C16.4599 10.0956 16.6931 9.10448 16.6931 8.28825C16.6931 6.53918 15.9935 4.96502 14.8274 3.74067H14.7691ZM10.2799 15.8092C10.2799 15.8092 10.2799 15.8092 10.2215 15.8092C10.1632 15.8092 10.1049 15.6926 9.98834 15.6343C9.81343 15.5177 9.58022 15.2845 9.34702 15.0513C8.8223 14.5266 8.23927 13.827 7.65625 13.069C7.01493 12.2528 6.49021 11.3783 6.14039 10.6203C5.73228 9.7458 5.49907 8.92957 5.49907 8.28825C5.49907 7.0056 5.96549 5.83955 6.89832 4.96502C7.77285 4.09049 8.9972 3.56577 10.2215 3.56577C11.4459 3.56577 12.6702 4.03218 13.5448 4.96502C14.4193 5.89785 14.944 7.0639 14.944 8.28825C14.944 9.51259 14.7108 9.6875 14.3027 10.6203C13.9529 11.3783 13.4282 12.2528 12.7868 13.069C12.2621 13.7687 11.6791 14.4683 11.1544 15.0513C10.9212 15.2845 10.688 15.5177 10.5131 15.6343C10.4548 15.6926 10.3382 15.7509 10.2799 15.8092Z" fill="white"/>
<path d="M13.3699 10.3288C13.778 9.68751 14.0112 8.98789 14.0112 8.22996C14.0112 7.23882 13.6031 6.24768 12.9035 5.54806C12.2039 4.84843 11.271 4.44031 10.2216 4.44031C9.46367 4.44031 8.76405 4.67352 8.12272 5.08164C7.4814 5.48975 7.01498 6.07278 6.72347 6.7724C6.43196 7.47203 6.37365 8.22996 6.49026 8.92959C6.66516 9.68751 7.01498 10.3288 7.5397 10.8536C8.06442 11.3783 8.76405 11.7281 9.46367 11.903C9.69688 11.903 9.93009 11.9613 10.2216 11.9613C10.7463 11.9613 11.2127 11.8447 11.6792 11.6698C12.3788 11.3783 12.9618 10.9119 13.3699 10.2705V10.3288ZM9.81349 6.18938C9.93009 6.18938 10.105 6.18938 10.2216 6.18938C10.5131 6.18938 10.7463 6.18938 10.9795 6.36429C11.3293 6.53919 11.6792 6.7724 11.9124 7.12222C12.1456 7.47203 12.2622 7.88015 12.2622 8.28826C12.2622 8.81298 12.029 9.3377 11.6792 9.74582C11.3293 10.1539 10.7463 10.3288 10.2216 10.3288C9.81349 10.3288 9.40537 10.2122 9.05556 9.97903C8.70574 9.74582 8.47253 9.45431 8.29763 9.04619C8.12272 8.69638 8.12272 8.22996 8.18102 7.88015C8.23933 7.53033 8.47253 7.12222 8.76405 6.83071C9.05556 6.53919 9.40537 6.36429 9.81349 6.24768V6.18938Z" fill="white"/>
</svg>
