<svg width="20" height="21" viewBox="0 0 20 21" fill="none" xmlns="http://www.w3.org/2000/svg">
<path d="M14.7691 4.16499C13.5448 2.94064 11.9123 2.29932 10.2215 2.29932C8.47248 2.29932 6.89832 2.99894 5.67397 4.16499C4.44963 5.38934 3.75 6.9635 3.75 8.71256C3.75 9.52879 3.98321 10.5199 4.50793 11.6277C4.97435 12.6188 5.55737 13.61 6.257 14.6011C6.95662 15.5339 7.65625 16.3502 8.35588 16.9332C8.70569 17.2247 9.0555 17.4579 9.34702 17.6328C9.69683 17.8077 9.98834 17.9243 10.2215 17.9243C10.4548 17.9243 10.7463 17.8077 11.0961 17.6328C11.3876 17.4579 11.7374 17.2247 12.0872 16.9332C12.7868 16.3502 13.4865 15.4756 14.1861 14.6011C14.8857 13.61 15.5271 12.5605 15.9352 11.6277C16.4599 10.5199 16.6931 9.52879 16.6931 8.71256C16.6931 6.9635 15.9935 5.38934 14.8274 4.16499H14.7691ZM10.2799 16.2336C10.2799 16.2336 10.2799 16.2336 10.2215 16.2336C10.1632 16.2336 10.1049 16.1169 9.98834 16.0586C9.81343 15.942 9.58022 15.7088 9.34702 15.4756C8.8223 14.9509 8.23927 14.2513 7.65625 13.4933C7.01493 12.6771 6.49021 11.8026 6.14039 11.0447C5.73228 10.1701 5.49907 9.35389 5.49907 8.71256C5.49907 7.42991 5.96549 6.26387 6.89832 5.38934C7.77285 4.5148 8.9972 3.99008 10.2215 3.99008C11.4459 3.99008 12.6702 4.4565 13.5448 5.38934C14.4193 6.32217 14.944 7.48822 14.944 8.71256C14.944 9.93691 14.7108 10.1118 14.3027 11.0447C13.9529 11.8026 13.4282 12.6771 12.7868 13.4933C12.2621 14.193 11.6791 14.8926 11.1544 15.4756C10.9212 15.7088 10.688 15.942 10.5131 16.0586C10.4548 16.1169 10.3382 16.1753 10.2799 16.2336Z" fill="#667085"/>
<path d="M13.3699 10.7532C13.778 10.1118 14.0112 9.4122 14.0112 8.65427C14.0112 7.66314 13.6031 6.672 12.9035 5.97237C12.2039 5.27274 11.271 4.86463 10.2216 4.86463C9.46367 4.86463 8.76405 5.09784 8.12272 5.50595C7.4814 5.91407 7.01498 6.49709 6.72347 7.19672C6.43196 7.89635 6.37365 8.65427 6.49026 9.3539C6.66516 10.1118 7.01498 10.7532 7.5397 11.2779C8.06442 11.8026 8.76405 12.1524 9.46367 12.3273C9.69688 12.3273 9.93009 12.3856 10.2216 12.3856C10.7463 12.3856 11.2127 12.269 11.6792 12.0941C12.3788 11.8026 12.9618 11.3362 13.3699 10.6949V10.7532ZM9.81349 6.6137C9.93009 6.6137 10.105 6.6137 10.2216 6.6137C10.5131 6.6137 10.7463 6.6137 10.9795 6.7886C11.3293 6.96351 11.6792 7.19672 11.9124 7.54653C12.1456 7.89635 12.2622 8.30446 12.2622 8.71258C12.2622 9.2373 12.029 9.76202 11.6792 10.1701C11.3293 10.5782 10.7463 10.7532 10.2216 10.7532C9.81349 10.7532 9.40537 10.6366 9.05556 10.4033C8.70574 10.1701 8.47253 9.87862 8.29763 9.47051C8.12272 9.12069 8.12272 8.65427 8.18102 8.30446C8.23933 7.95465 8.47253 7.54653 8.76405 7.25502C9.05556 6.96351 9.40537 6.7886 9.81349 6.672V6.6137Z" fill="#667085"/>
</svg>
