<svg width="50" height="50" viewBox="0 0 50 50" fill="none" xmlns="http://www.w3.org/2000/svg">
<path d="M10.5171 45.1122C14.258 48.0605 19.2853 49.6955 24.6864 49.723V0.277344H4.02734V31.2982C4.02734 36.9891 6.27138 41.766 10.5171 45.1122Z" fill="#BCBDC0"/>
<path d="M3.75 0V31.2979C3.75 37.0766 6.03064 41.9287 10.3452 45.3294C14.1667 48.3413 19.3088 50 24.8245 50H24.9629V0H3.75ZM24.686 49.7227C19.285 49.6952 14.2576 48.0602 10.5167 45.1118C6.271 41.7656 4.02697 36.9887 4.02697 31.2979V0.276966H24.686V49.7227Z" fill="#1D1D1B"/>
<path d="M45.6219 31.2982V0.277344H24.9629V49.723C30.3641 49.6955 35.3915 48.0605 39.1321 45.1122C43.3779 41.766 45.6219 36.9892 45.6219 31.2982Z" fill="#E5201C"/>
<path d="M14.3562 23.7716L24.6126 0.277344H4.09961L14.3562 23.7716Z" fill="#E5201C"/>
<path d="M35.2927 23.7716L45.5491 0.277344H25.0361L35.2927 23.7716Z" fill="#BCBDC0"/>
<path d="M14.0027 12.1832C13.9769 12.2436 13.9124 12.2777 13.8476 12.2645C13.7833 12.2513 13.7369 12.1946 13.7369 12.1288V9.32084L12.699 3.83643L11.6611 9.32084V16.0168H14.6648V14.513C14.6648 14.1611 15.101 14.0036 15.5334 14.0036C15.9658 14.0036 16.402 14.1611 16.402 14.513V16.0168H17.0531V12.1571L15.5334 8.59696L14.0027 12.1832ZM13.342 11.8709C13.342 11.9473 13.28 12.0094 13.2036 12.0094H12.1943C12.1179 12.0094 12.0558 11.9473 12.0558 11.8709V10.5874C12.0558 10.0771 12.3793 9.81013 12.699 9.81013C13.0186 9.81013 13.342 10.0771 13.342 10.5874V11.8709Z" fill="#BCBDC0"/>
<path d="M17.3185 12.0738L15.6603 8.1892C15.6171 8.08715 15.449 8.08715 15.4057 8.1892L14.0135 11.4509V9.30725C14.0135 9.2986 14.0128 9.29003 14.0112 9.28147L12.8348 3.06533C12.8224 2.99997 12.7652 2.95264 12.6987 2.95264C12.6321 2.95264 12.575 2.99997 12.5625 3.06533L11.3861 9.28147C11.3845 9.29003 11.3838 9.2986 11.3838 9.30725V16.1547C11.3838 16.2311 11.4458 16.2932 11.5223 16.2932H14.8029C14.8794 16.2932 14.9414 16.2311 14.9414 16.1547V14.5124C14.9414 14.3864 15.2124 14.2799 15.533 14.2799C15.8537 14.2799 16.1247 14.3864 16.1247 14.5124V16.1547C16.1247 16.2311 16.1867 16.2932 16.2631 16.2932H17.1912C17.2677 16.2932 17.3297 16.2311 17.3297 16.1547V12.1282C17.3297 12.1096 17.3259 12.0911 17.3185 12.0738ZM17.0528 16.0162H16.4016V14.5124C16.4016 14.1605 15.9654 14.003 15.533 14.003C15.1006 14.003 14.6645 14.1605 14.6645 14.5124V16.0162H11.6608V9.32024L12.6987 3.83583L13.7366 9.32024V12.1282C13.7366 12.194 13.7829 12.2507 13.8473 12.2639C13.912 12.2771 13.9766 12.243 14.0023 12.1826L15.533 8.59636L17.0528 12.1565L17.0528 16.0162Z" fill="#1D1D1B"/>
<path d="M12.6984 9.80957C12.3787 9.80957 12.0552 10.0765 12.0552 10.5868V11.8703C12.0552 11.9468 12.1172 12.0088 12.1937 12.0088H13.2029C13.2793 12.0088 13.3414 11.9468 13.3414 11.8703V10.5868C13.3414 10.0765 13.0179 9.80957 12.6984 9.80957ZM13.0644 11.7318H12.3321V10.5868C12.3321 10.243 12.522 10.0865 12.6984 10.0865C12.7903 10.0865 12.8769 10.1267 12.9416 10.1997C13.022 10.29 13.0644 10.4239 13.0644 10.5868V11.7318Z" fill="#1D1D1B"/>
<path d="M34.9381 12.1831C34.9123 12.2435 34.8476 12.2776 34.783 12.2644C34.7186 12.2512 34.6723 12.1945 34.6723 12.1287V9.32075L33.6346 3.83643L32.5967 9.32075V16.0167H35.6004V14.5129C35.6004 14.161 36.0366 14.0035 36.469 14.0035C36.9014 14.0035 37.3376 14.161 37.3376 14.5129V16.0167H37.9887V12.157L36.469 8.59678L34.9381 12.1831ZM34.2778 11.8708C34.2778 11.9472 34.2157 12.0093 34.1393 12.0093H33.1299C33.0534 12.0093 32.9914 11.9472 32.9914 11.8708V10.5873C32.9914 10.077 33.3149 9.81004 33.6346 9.81004C33.9543 9.81004 34.2778 10.077 34.2778 10.5873V11.8708Z" fill="#E5201C"/>
<path d="M38.2541 12.0738L36.5959 8.1892C36.5526 8.08715 36.3846 8.08715 36.3413 8.1892L34.9489 11.451V9.30725C34.9489 9.2986 34.9482 9.29003 34.9465 9.28147L33.7703 3.06533C33.7579 2.99997 33.7007 2.95264 33.6342 2.95264C33.5677 2.95264 33.5105 2.99997 33.4981 3.06533L32.3217 9.28147C32.3201 9.29003 32.3193 9.2986 32.3193 9.30725V16.1547C32.3193 16.2311 32.3814 16.2932 32.4578 16.2932H35.7385C35.8149 16.2932 35.877 16.2311 35.877 16.1547V14.5124C35.877 14.3864 36.148 14.2799 36.4686 14.2799C36.7892 14.2799 37.0602 14.3864 37.0602 14.5124V16.1547C37.0602 16.2311 37.1222 16.2932 37.1987 16.2932H38.1268C38.2032 16.2932 38.2653 16.2311 38.2653 16.1547V12.1282C38.2653 12.1096 38.2615 12.0911 38.2541 12.0738ZM37.9883 16.0162H37.3372V14.5124C37.3372 14.1605 36.901 14.003 36.4686 14.003C36.0362 14.003 35.6 14.1605 35.6 14.5124V16.0162H32.5963V9.32024L33.6342 3.83592L34.6719 9.32024V12.1282C34.6719 12.194 34.7183 12.2507 34.7826 12.2639C34.8472 12.2771 34.9119 12.243 34.9377 12.1826L36.4686 8.59627L37.9883 12.1565V16.0162Z" fill="#1D1D1B"/>
<path d="M33.6339 9.80957C33.3142 9.80957 32.9907 10.0765 32.9907 10.5868V11.8703C32.9907 11.9468 33.0528 12.0088 33.1292 12.0088H34.1386C34.2151 12.0088 34.2771 11.9468 34.2771 11.8703V10.5868C34.2771 10.0765 33.9536 9.80957 33.6339 9.80957ZM34.0001 11.7318H33.2677V10.5868C33.2677 10.243 33.4576 10.0865 33.6339 10.0865C33.7261 10.0865 33.8124 10.1267 33.8773 10.1997C33.9578 10.2901 34.0001 10.4239 34.0001 10.5868V11.7318Z" fill="#1D1D1B"/>
<path d="M23.3438 32.3653V28.0108L21.3155 18.1646C21.3079 18.1282 21.3153 18.0903 21.336 18.0595C21.3568 18.0287 21.389 18.0074 21.4256 18.0005C21.7268 17.9441 21.9455 17.7683 21.9455 17.5825C21.9455 17.42 21.7848 17.266 21.5363 17.1901C21.4781 17.1723 21.4383 17.1186 21.4383 17.0576V15.8834C21.4383 15.807 21.5003 15.7449 21.5767 15.7449H22.3689V15.4084H21.5767C21.5003 15.4084 21.4383 15.3464 21.4383 15.2699V14.2798H20.9976V15.2699C20.9976 15.3464 20.9355 15.4084 20.8591 15.4084H20.0668V15.7449H20.8591C20.9355 15.7449 20.9976 15.807 20.9976 15.8834V17.0576C20.9976 17.1186 20.9577 17.1723 20.8995 17.1901C20.6508 17.266 20.4901 17.4201 20.4901 17.5825C20.4901 17.7683 20.7089 17.9441 21.01 18.0005C21.0466 18.0074 21.0789 18.0287 21.0996 18.0595C21.1204 18.0903 21.1277 18.1282 21.1202 18.1646L19.0918 28.0107V43.2646H19.9427V41.1334C19.9427 40.4379 20.4938 40.074 21.0381 40.074C21.5825 40.074 22.1336 40.4379 22.1336 41.1334V43.2646H24.6863V32.5038H23.4823C23.4059 32.5038 23.3438 32.4418 23.3438 32.3653ZM21.952 32.3653C21.952 32.4418 21.8899 32.5038 21.8135 32.5038H20.2626C20.1861 32.5038 20.1241 32.4418 20.1241 32.3653V30.181C20.1241 29.5082 20.5839 29.1563 21.038 29.1563C21.4922 29.1563 21.952 29.5082 21.952 30.181L21.952 32.3653Z" fill="#E5201C"/>
<path d="M21.0379 29.1562C20.5838 29.1562 20.124 29.5081 20.124 30.1809V32.3652C20.124 32.4417 20.1861 32.5037 20.2625 32.5037H21.8134C21.8899 32.5037 21.9519 32.4417 21.9519 32.3652V30.1809C21.9519 29.5081 21.4921 29.1562 21.0379 29.1562ZM21.6749 32.2268H20.401V30.1809C20.401 29.6672 20.7311 29.4332 21.0379 29.4332C21.3448 29.4332 21.6749 29.6672 21.6749 30.1809L21.6749 32.2268Z" fill="#1D1D1B"/>
<path d="M24.9629 32.5039V43.2647H31.9923V38.0405L29.1879 32.5039H24.9629ZM27.2313 41.7408H25.4034V39.418C25.4034 38.7452 25.8632 38.3932 26.3172 38.3932C26.7715 38.3932 27.2313 38.7452 27.2313 39.418V41.7408ZM30.1517 39.418V41.7408H28.3238V39.418C28.3238 38.7452 28.7836 38.3932 29.2378 38.3932C29.6919 38.3932 30.1517 38.7452 30.1517 39.418Z" fill="#BCBDC0"/>
<path d="M45.7605 0H24.8245H24.686H3.88851C3.8418 0 3.79817 0.023531 3.77256 0.0626608C3.74714 0.1017 3.74281 0.151105 3.76156 0.193931L14.2296 24.1728C14.2516 24.2232 14.3016 24.2558 14.3566 24.2558C14.4116 24.2558 14.4615 24.2232 14.4835 24.1728L24.686 0.801934V32.2267H23.6205V27.9965C23.6205 27.9871 23.6196 27.9777 23.6176 27.9685L21.6134 18.2395C21.9827 18.1295 22.2222 17.8766 22.2222 17.5823C22.2222 17.3216 22.0263 17.085 21.7149 16.9596V16.0217H22.5071C22.5835 16.0217 22.6456 15.9597 22.6456 15.8833V15.2697C22.6456 15.1933 22.5835 15.1312 22.5071 15.1312H21.7149V14.1411C21.7149 14.0647 21.6529 14.0026 21.5765 14.0026H20.8588C20.7823 14.0026 20.7203 14.0647 20.7203 14.1411V15.1312H19.928C19.8515 15.1312 19.7895 15.1933 19.7895 15.2697V15.8833C19.7895 15.9597 19.8515 16.0217 19.928 16.0217H20.7203V16.9596C20.4089 17.085 20.2129 17.3217 20.2129 17.5823C20.2129 17.8766 20.4524 18.1295 20.8217 18.2395L18.8174 27.9685C18.8155 27.9777 18.8146 27.9871 18.8146 27.9965V43.403C18.8146 43.4794 18.8766 43.5414 18.953 43.5414H20.0809C20.1574 43.5414 20.2194 43.4794 20.2194 43.403V41.1332C20.2194 40.5956 20.6437 40.3508 21.0379 40.3508C21.432 40.3508 21.8563 40.5956 21.8563 41.1332V43.403C21.8563 43.4794 21.9183 43.5414 21.9948 43.5414H24.686V50H24.8245C30.3402 50 35.4823 48.3413 39.3037 45.3294C43.6183 41.9287 45.899 37.0766 45.899 31.2979V0H45.7605ZM14.3566 23.7712L4.10002 0.276966H24.613L14.3566 23.7712ZM45.549 0.276966L35.2926 23.7712L25.036 0.276966H45.549ZM29.188 32.5036L31.9924 38.0403V43.2645H24.963V32.5036H29.188ZM22.1333 43.2645V41.1332C22.1333 40.4377 21.5822 40.0739 21.0378 40.0739C20.4935 40.0739 19.9424 40.4377 19.9424 41.1332V43.2645H19.0915V28.0105L21.1199 18.1644C21.1275 18.128 21.1201 18.0901 21.0993 18.0593C21.0786 18.0285 21.0463 18.0072 21.0097 18.0003C20.7086 17.9439 20.4899 17.7681 20.4899 17.5823C20.4899 17.4199 20.6505 17.2658 20.8992 17.1899C20.9574 17.1722 20.9973 17.1184 20.9973 17.0575V15.8832C20.9973 15.8068 20.9352 15.7448 20.8588 15.7448H20.0665V15.4082H20.8588C20.9352 15.4082 20.9973 15.3462 20.9973 15.2697V14.2796H21.438V15.2697C21.438 15.3462 21.5 15.4082 21.5765 15.4082H22.3686V15.7448H21.5765C21.5 15.7448 21.438 15.8068 21.438 15.8832V17.0575C21.438 17.1184 21.4778 17.1721 21.5361 17.1899C21.7845 17.2658 21.9452 17.4198 21.9452 17.5823C21.9452 17.7681 21.7265 17.9439 21.4253 18.0003C21.3887 18.0072 21.3565 18.0285 21.3357 18.0593C21.315 18.0901 21.3076 18.128 21.3152 18.1644L23.3436 28.0106V32.3652C23.3436 32.4416 23.4056 32.5036 23.482 32.5036H24.686V43.2645H22.1333ZM45.622 31.2979C45.622 36.9888 43.378 41.7656 39.1322 45.1118C35.3916 48.0602 30.3642 49.6952 24.963 49.7227V43.5414H32.2694V37.9741L29.3582 32.2267H24.963V0.801934L35.1656 24.1728C35.1876 24.2232 35.2376 24.2558 35.2926 24.2558C35.3476 24.2558 35.3975 24.2232 35.4195 24.1728L45.622 0.801945V31.2979Z" fill="#1D1D1B"/>
<path d="M29.2382 38.3936C28.784 38.3936 28.3242 38.7455 28.3242 39.4183V41.7411H30.1521V39.4183C30.1521 38.7455 29.6923 38.3936 29.2382 38.3936ZM29.8751 41.4642H28.6012V39.4183C28.6012 38.9045 28.9313 38.6705 29.2382 38.6705C29.545 38.6705 29.8751 38.9045 29.8751 39.4183L29.8751 41.4642Z" fill="#1D1D1B"/>
<path d="M26.3172 38.3936C25.8631 38.3936 25.4033 38.7455 25.4033 39.4183V41.7411H27.2312V39.4183C27.2312 38.7455 26.7714 38.3936 26.3172 38.3936ZM26.9542 41.4642H25.6803V39.4183C25.6803 38.9045 26.0104 38.6705 26.3172 38.6705C26.6241 38.6705 26.9542 38.9045 26.9542 39.4183V41.4642Z" fill="#1D1D1B"/>
</svg>
