<svg width="20" height="21" viewBox="0 0 20 21" fill="none" xmlns="http://www.w3.org/2000/svg">
<path d="M17.5 3.86182H2.5C2.25136 3.86182 2.0129 3.96059 1.83709 4.1364C1.66127 4.31222 1.5625 4.55068 1.5625 4.79932V15.4243C1.5625 15.8387 1.72712 16.2361 2.02015 16.5292C2.31317 16.8222 2.7106 16.9868 3.125 16.9868H16.875C17.2894 16.9868 17.6868 16.8222 17.9799 16.5292C18.2729 16.2361 18.4375 15.8387 18.4375 15.4243V4.79932C18.4375 4.55068 18.3387 4.31222 18.1629 4.1364C17.9871 3.96059 17.7486 3.86182 17.5 3.86182ZM15.0898 5.73682L10 10.4024L4.91016 5.73682H15.0898ZM3.4375 15.1118V6.93057L9.36641 12.3657C9.53932 12.5243 9.7654 12.6122 10 12.6122C10.2346 12.6122 10.4607 12.5243 10.6336 12.3657L16.5625 6.93057V15.1118H3.4375Z" fill="#667085"/>
</svg>
