<svg width="64" height="64" viewBox="0 0 64 64" fill="none" xmlns="http://www.w3.org/2000/svg">
<g opacity="0.8">
<g clip-path="url(#clip0_222_4143)">
<rect width="64" height="64" rx="8" fill="white"/>
<rect width="64" height="64" fill="#FFFEFD"/>
<path d="M40.8786 32.6619C40.7984 32.8721 40.681 33.0631 40.5329 33.2238L35.2422 38.9925C34.9439 39.3174 34.5393 39.5 34.1174 39.5C33.6955 39.5 33.2909 39.3174 32.9925 38.9925C32.6942 38.6675 32.5266 38.2268 32.5266 37.7673C32.5266 37.3077 32.6942 36.867 32.9925 36.542L35.5717 33.7297L24.588 33.7297C24.1668 33.7297 23.7629 33.5475 23.4651 33.2231C23.1673 32.8987 23 32.4588 23 32C23 31.5412 23.1673 31.1013 23.4651 30.7769C23.7629 30.4525 24.1668 30.2703 24.588 30.2703L35.5717 30.2703L32.9899 27.458C32.6916 27.133 32.524 26.6923 32.524 26.2327C32.524 25.7732 32.6916 25.3325 32.9899 25.0075C33.2882 24.6826 33.6928 24.5 34.1147 24.5C34.5366 24.5 34.9412 24.6826 35.2396 25.0075L40.5329 30.7733C40.681 30.934 40.7984 31.125 40.8786 31.3352C40.9587 31.5455 41 31.7709 41 31.9986C41 32.2262 40.9587 32.4516 40.8786 32.6619Z" fill="#101828"/>
</g>
</g>
<defs>
<clipPath id="clip0_222_4143">
<rect width="64" height="64" rx="8" fill="white"/>
</clipPath>
</defs>
</svg>
