<svg width="24" height="24" viewBox="0 0 24 24" fill="none" xmlns="http://www.w3.org/2000/svg">
<path d="M20.8786 12.6619C20.7984 12.8721 20.681 13.0631 20.5329 13.2238L15.2422 18.9925C14.9439 19.3174 14.5393 19.5 14.1174 19.5C13.6955 19.5 13.2909 19.3174 12.9925 18.9925C12.6942 18.6675 12.5266 18.2268 12.5266 17.7673C12.5266 17.3077 12.6942 16.867 12.9925 16.542L15.5717 13.7297L4.58801 13.7297C4.16684 13.7297 3.76293 13.5475 3.46512 13.2231C3.16731 12.8987 3 12.4588 3 12C3 11.5412 3.16731 11.1013 3.46512 10.7769C3.76293 10.4525 4.16684 10.2703 4.58801 10.2703L15.5717 10.2703L12.9899 7.45798C12.6916 7.13303 12.524 6.6923 12.524 6.23274C12.524 5.77319 12.6916 5.33246 12.9899 5.00751C13.2882 4.68256 13.6928 4.5 14.1147 4.5C14.5366 4.5 14.9412 4.68256 15.2396 5.00751L20.5329 10.7733C20.681 10.934 20.7984 11.125 20.8786 11.3352C20.9587 11.5455 21 11.7709 21 11.9986C21 12.2262 20.9587 12.4516 20.8786 12.6619Z" fill="#667085"/>
</svg>
