<svg width="20" height="20" viewBox="0 0 20 20" fill="none" xmlns="http://www.w3.org/2000/svg">
<path d="M17.5 12.0934L13.8211 10.4442L13.807 10.4379C13.5679 10.3348 13.3067 10.2933 13.0474 10.3172C12.7881 10.3411 12.5389 10.4296 12.3227 10.5747C12.2923 10.595 12.2631 10.6169 12.2352 10.6403L10.4922 12.1247C9.47657 11.5739 8.42735 10.5333 7.87579 9.53013L9.36485 7.75981C9.38879 7.73124 9.41096 7.70124 9.43126 7.66997C9.57249 7.45447 9.65824 7.20738 9.68087 6.95071C9.70349 6.69405 9.6623 6.43577 9.56094 6.19888C9.55854 6.19434 9.55645 6.18964 9.55469 6.18481L7.90626 2.49966C7.77094 2.19147 7.54001 1.93504 7.24763 1.7683C6.95525 1.60157 6.61696 1.5334 6.28282 1.57388C5.14873 1.72285 4.10765 2.27956 3.35402 3.14001C2.60039 4.00047 2.18573 5.10583 2.18751 6.24966C2.18751 12.6254 7.37422 17.8122 13.75 17.8122C14.8938 17.8139 15.9992 17.3993 16.8597 16.6456C17.7201 15.892 18.2768 14.8509 18.4258 13.7168C18.4663 13.3827 18.3981 13.0444 18.2314 12.752C18.0646 12.4597 17.8082 12.2287 17.5 12.0934ZM13.75 15.9372C11.1817 15.9341 8.71942 14.9124 6.90333 13.0963C5.08725 11.2802 4.06561 8.81799 4.06251 6.24966C4.06072 5.60239 4.28046 4.97399 4.68522 4.46889C5.08999 3.96379 5.6554 3.61239 6.28751 3.47309L7.75782 6.75434L6.26094 8.53716C6.23675 8.56599 6.21431 8.59625 6.19376 8.62778C6.04622 8.85321 5.95947 9.11297 5.94195 9.38182C5.92443 9.65067 5.97672 9.91948 6.09376 10.1622C6.82969 11.6684 8.3461 13.1747 9.86797 13.9122C10.1123 14.028 10.3824 14.0784 10.6521 14.0586C10.9217 14.0387 11.1816 13.9492 11.4063 13.7989C11.4365 13.7785 11.4654 13.7563 11.493 13.7325L13.2453 12.2426L16.5266 13.7122C16.3873 14.3443 16.0359 14.9097 15.5308 15.3144C15.0257 15.7192 14.3973 15.9389 13.75 15.9372Z" fill="white"/>
</svg>
