<svg width="20" height="21" viewBox="0 0 20 21" fill="none" xmlns="http://www.w3.org/2000/svg">
<path d="M17.5 12.5177L13.8211 10.8685L13.807 10.8623C13.5679 10.7592 13.3067 10.7177 13.0474 10.7415C12.7881 10.7654 12.5389 10.8539 12.3227 10.999C12.2923 11.0193 12.2631 11.0412 12.2352 11.0646L10.4922 12.549C9.47657 11.9982 8.42735 10.9576 7.87579 9.95444L9.36485 8.18413C9.38879 8.15556 9.41096 8.12555 9.43126 8.09429C9.57249 7.87878 9.65824 7.63169 9.68087 7.37503C9.70349 7.11836 9.6623 6.86008 9.56094 6.62319C9.55854 6.61865 9.55645 6.61396 9.55469 6.60913L7.90626 2.92397C7.77094 2.61579 7.54001 2.35935 7.24763 2.19262C6.95525 2.02589 6.61696 1.95772 6.28282 1.99819C5.14873 2.14717 4.10765 2.70387 3.35402 3.56433C2.60039 4.42478 2.18573 5.53015 2.18751 6.67397C2.18751 13.0498 7.37422 18.2365 13.75 18.2365C14.8938 18.2382 15.9992 17.8236 16.8597 17.07C17.7201 16.3163 18.2768 15.2752 18.4258 14.1412C18.4663 13.807 18.3981 13.4687 18.2314 13.1763C18.0646 12.884 17.8082 12.653 17.5 12.5177ZM13.75 16.3615C11.1817 16.3584 8.71942 15.3367 6.90333 13.5206C5.08725 11.7046 4.06561 9.24231 4.06251 6.67397C4.06072 6.0267 4.28046 5.39831 4.68522 4.89321C5.08999 4.3881 5.6554 4.03671 6.28751 3.89741L7.75782 7.17866L6.26094 8.96147C6.23675 8.99031 6.21431 9.02057 6.19376 9.0521C6.04622 9.27753 5.95947 9.53728 5.94195 9.80613C5.92443 10.075 5.97672 10.3438 6.09376 10.5865C6.82969 12.0927 8.3461 13.599 9.86797 14.3365C10.1123 14.4523 10.3824 14.5027 10.6521 14.4829C10.9217 14.463 11.1816 14.3735 11.4063 14.2232C11.4365 14.2028 11.4654 14.1806 11.493 14.1568L13.2453 12.6669L16.5266 14.1365C16.3873 14.7686 16.0359 15.334 15.5308 15.7388C15.0257 16.1435 14.3973 16.3633 13.75 16.3615Z" fill="#667085"/>
</svg>
