<svg width="20" height="20" viewBox="0 0 20 20" fill="none" xmlns="http://www.w3.org/2000/svg">
<path d="M11.3657 13.2158C11.2558 13.4906 11.3107 13.7837 11.5122 13.9852C11.6404 14.1134 11.8236 14.205 12.0251 14.205C12.2266 14.205 12.2083 14.205 12.2999 14.15C12.5746 14.0401 12.7395 13.7837 12.7395 13.4906C12.7395 13.3074 12.6662 13.1243 12.538 12.996C12.4098 12.8678 12.2266 12.7945 12.0434 12.7945C11.7687 12.7945 11.5122 12.9594 11.384 13.2342L11.3657 13.2158Z" fill="white"/>
<path d="M9.84542 14.205C9.55233 14.205 9.3142 14.3699 9.18598 14.6446C9.07607 14.9011 9.13103 15.2125 9.33252 15.414C9.46074 15.5422 9.64392 15.6338 9.84542 15.6338C10.0469 15.6338 10.0286 15.6338 10.1202 15.5788C10.3949 15.4689 10.5598 15.2125 10.5598 14.9194C10.5598 14.7362 10.4865 14.5531 10.3583 14.4248C10.2301 14.2966 10.0469 14.2233 9.86373 14.2233L9.84542 14.205Z" fill="white"/>
<path d="M16.0551 7.92204H15.7071V4.64317C15.7071 3.47084 14.7545 2.51832 13.5822 2.5H10.5232C9.35082 2.5 8.37998 3.45252 8.37998 4.64317V7.92204H7.33587C7.33587 7.37251 7.09774 6.84129 6.71307 6.45662C6.31008 6.05363 5.77887 5.83382 5.1927 5.83382H4.64317C3.47084 5.83382 2.5 6.78634 2.5 7.97699V13.4723C2.5 14.0585 2.75645 14.608 3.17775 15.011V15.5605C3.17775 16.7329 4.13028 17.6854 5.30261 17.7037H15.9818C17.1542 17.7037 18.125 16.7512 18.125 15.5605V10.0652C18.125 8.9112 17.1725 7.95867 16.0185 7.94036L16.0551 7.92204ZM9.79044 4.64317C9.79044 4.45999 9.86372 4.27682 9.99194 4.14859C10.1202 4.02037 10.3033 3.9471 10.4865 3.9471H13.5456C13.7288 3.9471 13.9119 4.02037 14.0402 4.14859C14.1684 4.27682 14.2416 4.45999 14.2416 4.64317V7.92204H9.80876L9.77213 4.64317H9.79044ZM5.90709 13.4723C5.90709 13.857 5.59569 14.1867 5.1927 14.1867H4.64317C4.2585 14.1867 3.9471 13.857 3.9471 13.4723V7.97699C3.9471 7.59232 4.2585 7.28092 4.64317 7.28092H5.1927C5.37588 7.28092 5.55906 7.35419 5.68728 7.48241C5.8155 7.61064 5.88877 7.79382 5.88877 7.97699V13.4723H5.90709ZM4.66149 15.6338H5.1927C5.76055 15.6338 6.31008 15.3957 6.71307 14.9927C7.11606 14.5897 7.33587 14.0402 7.33587 13.4723V9.36914H15.9818C16.3665 9.36914 16.6779 9.68054 16.6779 10.0652V15.6155C16.6779 15.7987 16.6229 15.9818 16.4764 16.1101C16.3482 16.2383 16.165 16.3115 15.9818 16.3115H5.30261C5.11943 16.3115 4.93625 16.2383 4.80803 16.1101C4.67981 15.9818 4.60654 15.817 4.60654 15.6338C4.62485 15.6338 4.64317 15.6338 4.66149 15.6338Z" fill="white"/>
<path d="M9.84542 14.205C9.937 14.205 10.0285 14.205 10.1201 14.15C10.3949 14.0401 10.5597 13.7837 10.5597 13.4906C10.5597 13.3074 10.4865 13.1243 10.3582 12.996C10.23 12.8678 10.0468 12.7945 9.86366 12.7945C9.57058 12.7945 9.33245 12.9594 9.20423 13.2342C9.09432 13.4906 9.14927 13.802 9.35077 14.0035C9.47899 14.1317 9.66224 14.2233 9.86373 14.2233L9.84542 14.205Z" fill="white"/>
<path d="M12.0435 14.205C11.7688 14.205 11.5123 14.3699 11.3841 14.6446C11.2742 14.9194 11.3292 15.2125 11.5306 15.414C11.6589 15.5422 11.842 15.6338 12.0435 15.6338C12.245 15.6338 12.2267 15.6338 12.3183 15.5788C12.5931 15.4689 12.7579 15.2125 12.7579 14.9194C12.7579 14.7362 12.6847 14.5531 12.5564 14.4248C12.4282 14.2966 12.245 14.2233 12.0619 14.2233L12.0435 14.205Z" fill="white"/>
<path d="M10.3216 12.4465H13.6737C14.0034 12.4465 14.3148 12.3183 14.5347 12.0985C14.7728 11.8603 14.901 11.5673 14.901 11.2375C14.901 10.9078 14.7728 10.5781 14.5347 10.3583C14.2965 10.1385 14.0034 10.0103 13.6737 10.0103C13.344 10.0103 13.6554 10.0103 13.6371 10.0103H10.3216C9.69879 10.0652 9.20421 10.5964 9.20421 11.2375C9.20421 11.8787 9.69879 12.4099 10.3216 12.4648V12.4465Z" fill="white"/>
<path d="M14.2232 12.7945C13.9302 12.7945 13.6737 12.9594 13.5638 13.2342C13.4539 13.4906 13.5089 13.802 13.7103 14.0035C13.8386 14.1317 14.0217 14.2233 14.2232 14.2233C14.4247 14.2233 14.4064 14.2233 14.498 14.1684C14.7728 14.0585 14.9376 13.802 14.9376 13.5089C14.9376 13.2158 14.6262 12.8129 14.2416 12.7945H14.2232Z" fill="white"/>
<path d="M14.2232 14.205C13.9302 14.205 13.6737 14.3699 13.5638 14.6446C13.4539 14.9011 13.5089 15.2125 13.7103 15.414C13.8386 15.5422 14.0217 15.6338 14.2232 15.6338C14.4247 15.6338 14.4064 15.6338 14.498 15.5788C14.7728 15.4689 14.9376 15.2125 14.9376 14.9194C14.9376 14.6263 14.6262 14.2233 14.2416 14.205H14.2232Z" fill="white"/>
</svg>
