<svg width="23" height="23" viewBox="0 0 23 23" fill="none" xmlns="http://www.w3.org/2000/svg">
<path d="M9.37037 6.81481C9.37037 6.47785 9.47029 6.14846 9.6575 5.86829C9.8447 5.58811 10.1108 5.36975 10.4221 5.2408C10.7334 5.11185 11.076 5.07811 11.4065 5.14385C11.7369 5.20958 12.0405 5.37185 12.2788 5.61011C12.517 5.84838 12.6793 6.15195 12.745 6.48244C12.8108 6.81292 12.777 7.15548 12.6481 7.46679C12.5191 7.7781 12.3008 8.04419 12.0206 8.23139C11.7404 8.4186 11.411 8.51852 11.0741 8.51852C10.6222 8.51852 10.1889 8.33902 9.86938 8.01951C9.54987 7.70001 9.37037 7.26666 9.37037 6.81481ZM23 11.5C23 13.7745 22.3255 15.9979 21.0619 17.8891C19.7983 19.7802 18.0022 21.2542 15.9009 22.1246C13.7995 22.995 11.4872 23.2228 9.25646 22.779C7.02568 22.3353 4.97658 21.24 3.36828 19.6317C1.75997 18.0234 0.664704 15.9743 0.220974 13.7435C-0.222756 11.5128 0.00498279 9.20049 0.87539 7.09914C1.7458 4.99779 3.21978 3.20174 5.11095 1.9381C7.00211 0.674463 9.22552 0 11.5 0C14.549 0.00338209 17.4721 1.21607 19.628 3.37201C21.7839 5.52794 22.9966 8.45105 23 11.5ZM20.4444 11.5C20.4444 9.73095 19.9199 8.00164 18.937 6.53073C17.9542 5.05983 16.5573 3.91339 14.9229 3.23641C13.2885 2.55943 11.4901 2.3823 9.75503 2.72742C8.01998 3.07254 6.42623 3.92442 5.17533 5.17532C3.92442 6.42622 3.07255 8.01997 2.72743 9.75502C2.3823 11.4901 2.55943 13.2885 3.23642 14.9229C3.9134 16.5573 5.05983 17.9542 6.53074 18.937C8.00164 19.9199 9.73096 20.4444 11.5 20.4444C13.8714 20.4419 16.145 19.4987 17.8219 17.8219C19.4987 16.145 20.4419 13.8714 20.4444 11.5ZM12.7778 15.4057V11.9259C12.7778 11.3611 12.5534 10.8194 12.154 10.42C11.7546 10.0207 11.213 9.79629 10.6482 9.79629C10.3464 9.79584 10.0542 9.90221 9.82336 10.0965C9.5925 10.2909 9.43788 10.5606 9.38686 10.8581C9.33585 11.1555 9.39174 11.4613 9.54463 11.7215C9.69753 11.9817 9.93756 12.1793 10.2222 12.2794V15.7593C10.2222 16.3241 10.4466 16.8657 10.846 17.2651C11.2454 17.6645 11.787 17.8889 12.3519 17.8889C12.6536 17.8893 12.9458 17.783 13.1766 17.5886C13.4075 17.3943 13.5621 17.1245 13.6131 16.8271C13.6642 16.5297 13.6083 16.2238 13.4554 15.9637C13.3025 15.7035 13.0624 15.5059 12.7778 15.4057Z" fill="white"/>
</svg>
