<svg width="32" height="32" viewBox="0 0 32 32" fill="none" xmlns="http://www.w3.org/2000/svg">
<path d="M26 3.5H23.5V3C23.5 2.60218 23.342 2.22064 23.0607 1.93934C22.7794 1.65804 22.3978 1.5 22 1.5C21.6022 1.5 21.2206 1.65804 20.9393 1.93934C20.658 2.22064 20.5 2.60218 20.5 3V3.5H11.5V3C11.5 2.60218 11.342 2.22064 11.0607 1.93934C10.7794 1.65804 10.3978 1.5 10 1.5C9.60218 1.5 9.22064 1.65804 8.93934 1.93934C8.65804 2.22064 8.5 2.60218 8.5 3V3.5H6C5.33696 3.5 4.70107 3.76339 4.23223 4.23223C3.76339 4.70107 3.5 5.33696 3.5 6V26C3.5 26.663 3.76339 27.2989 4.23223 27.7678C4.70107 28.2366 5.33696 28.5 6 28.5H26C26.663 28.5 27.2989 28.2366 27.7678 27.7678C28.2366 27.2989 28.5 26.663 28.5 26V6C28.5 5.33696 28.2366 4.70107 27.7678 4.23223C27.2989 3.76339 26.663 3.5 26 3.5ZM8.5 6.5C8.5 6.89782 8.65804 7.27936 8.93934 7.56066C9.22064 7.84196 9.60218 8 10 8C10.3978 8 10.7794 7.84196 11.0607 7.56066C11.342 7.27936 11.5 6.89782 11.5 6.5H20.5C20.5 6.89782 20.658 7.27936 20.9393 7.56066C21.2206 7.84196 21.6022 8 22 8C22.3978 8 22.7794 7.84196 23.0607 7.56066C23.342 7.27936 23.5 6.89782 23.5 6.5H25.5V9.5H6.5V6.5H8.5ZM6.5 25.5V12.5H25.5V25.5H6.5ZM14 15.5V22.5C14 22.8978 13.842 23.2794 13.5607 23.5607C13.2794 23.842 12.8978 24 12.5 24C12.1022 24 11.7206 23.842 11.4393 23.5607C11.158 23.2794 11 22.8978 11 22.5V17.915C10.6431 18.0321 10.2552 18.0111 9.91307 17.856C9.57092 17.701 9.29941 17.4232 9.15222 17.0776C9.00502 16.732 8.99286 16.3437 9.11813 15.9896C9.2434 15.6354 9.49698 15.3412 9.82875 15.165L11.8287 14.165C12.057 14.0508 12.3105 13.9967 12.5655 14.0078C12.8204 14.019 13.0683 14.095 13.2857 14.2286C13.503 14.3623 13.6827 14.5492 13.8077 14.7717C13.9327 14.9941 13.9989 15.2448 14 15.5ZM21.6863 19.735L20.4875 21H21C21.3978 21 21.7794 21.158 22.0607 21.4393C22.342 21.7206 22.5 22.1022 22.5 22.5C22.5 22.8978 22.342 23.2794 22.0607 23.5607C21.7794 23.842 21.3978 24 21 24H17C16.7069 23.9999 16.4202 23.9139 16.1754 23.7527C15.9306 23.5914 15.7384 23.362 15.6226 23.0927C15.5068 22.8234 15.4724 22.5261 15.5237 22.2375C15.575 21.9489 15.7097 21.6816 15.9113 21.4688L19.4312 17.75C19.4757 17.6742 19.4995 17.5879 19.5 17.5C19.5003 17.3897 19.4641 17.2824 19.397 17.1948C19.33 17.1072 19.2359 17.0443 19.1293 17.0157C19.0228 16.9872 18.9098 16.9947 18.8079 17.0371C18.7061 17.0795 18.6211 17.1543 18.5662 17.25C18.3635 17.5868 18.0367 17.8305 17.656 17.9287C17.2754 18.0269 16.8715 17.9718 16.5311 17.7753C16.1907 17.5787 15.941 17.2564 15.8359 16.8776C15.7307 16.4988 15.7784 16.0939 15.9688 15.75C16.3539 15.0827 16.9486 14.5611 17.6604 14.2662C18.3723 13.9713 19.1616 13.9196 19.9058 14.119C20.6501 14.3184 21.3078 14.7578 21.7768 15.3692C22.2459 15.9805 22.5001 16.7295 22.5 17.5C22.5023 18.2608 22.2546 19.0012 21.795 19.6075C21.7615 19.6522 21.7251 19.6948 21.6863 19.735Z" fill="#FF5D64"/>
</svg>
