<svg width="32" height="32" viewBox="0 0 32 32" fill="none" xmlns="http://www.w3.org/2000/svg">
<path d="M30 25.5001H28.5V12.0001C28.5 11.337 28.2366 10.7011 27.7678 10.2323C27.2989 9.76346 26.663 9.50007 26 9.50007H21.5V4.00007C21.4998 3.57982 21.3938 3.16638 21.1915 2.79798C20.9893 2.42958 20.6975 2.1181 20.343 1.89234C19.9885 1.66658 19.5829 1.53382 19.1635 1.50633C18.7442 1.47884 18.3247 1.55751 17.9438 1.73507L4.94375 7.80257C4.51288 8.00442 4.14834 8.32469 3.89269 8.72598C3.63704 9.12727 3.50084 9.59302 3.5 10.0688V25.5001H2C1.60218 25.5001 1.22064 25.6581 0.93934 25.9394C0.658035 26.2207 0.5 26.6022 0.5 27.0001C0.5 27.3979 0.658035 27.7794 0.93934 28.0607C1.22064 28.342 1.60218 28.5001 2 28.5001H30C30.3978 28.5001 30.7794 28.342 31.0607 28.0607C31.342 27.7794 31.5 27.3979 31.5 27.0001C31.5 26.6022 31.342 26.2207 31.0607 25.9394C30.7794 25.6581 30.3978 25.5001 30 25.5001ZM25.5 12.5001V25.5001H21.5V12.5001H25.5ZM6.5 10.3863L18.5 4.78757V25.5001H6.5V10.3863ZM16.5 14.0001V15.5001C16.5 15.8979 16.342 16.2794 16.0607 16.5607C15.7794 16.842 15.3978 17.0001 15 17.0001C14.6022 17.0001 14.2206 16.842 13.9393 16.5607C13.658 16.2794 13.5 15.8979 13.5 15.5001V14.0001C13.5 13.6022 13.658 13.2207 13.9393 12.9394C14.2206 12.6581 14.6022 12.5001 15 12.5001C15.3978 12.5001 15.7794 12.6581 16.0607 12.9394C16.342 13.2207 16.5 13.6022 16.5 14.0001ZM11.5 14.0001V15.5001C11.5 15.8979 11.342 16.2794 11.0607 16.5607C10.7794 16.842 10.3978 17.0001 10 17.0001C9.60218 17.0001 9.22064 16.842 8.93934 16.5607C8.65804 16.2794 8.5 15.8979 8.5 15.5001V14.0001C8.5 13.6022 8.65804 13.2207 8.93934 12.9394C9.22064 12.6581 9.60218 12.5001 10 12.5001C10.3978 12.5001 10.7794 12.6581 11.0607 12.9394C11.342 13.2207 11.5 13.6022 11.5 14.0001ZM11.5 20.5001V22.0001C11.5 22.3979 11.342 22.7794 11.0607 23.0607C10.7794 23.342 10.3978 23.5001 10 23.5001C9.60218 23.5001 9.22064 23.342 8.93934 23.0607C8.65804 22.7794 8.5 22.3979 8.5 22.0001V20.5001C8.5 20.1022 8.65804 19.7207 8.93934 19.4394C9.22064 19.1581 9.60218 19.0001 10 19.0001C10.3978 19.0001 10.7794 19.1581 11.0607 19.4394C11.342 19.7207 11.5 20.1022 11.5 20.5001ZM16.5 20.5001V22.0001C16.5 22.3979 16.342 22.7794 16.0607 23.0607C15.7794 23.342 15.3978 23.5001 15 23.5001C14.6022 23.5001 14.2206 23.342 13.9393 23.0607C13.658 22.7794 13.5 22.3979 13.5 22.0001V20.5001C13.5 20.1022 13.658 19.7207 13.9393 19.4394C14.2206 19.1581 14.6022 19.0001 15 19.0001C15.3978 19.0001 15.7794 19.1581 16.0607 19.4394C16.342 19.7207 16.5 20.1022 16.5 20.5001Z" fill="#FFB82F"/>
</svg>
