<svg width="32" height="32" viewBox="0 0 32 32" fill="none" xmlns="http://www.w3.org/2000/svg">
<path d="M18 13.5C18 13.1022 18.158 12.7206 18.4393 12.4393C18.7206 12.158 19.1022 12 19.5 12H23.5C23.8978 12 24.2794 12.158 24.5607 12.4393C24.842 12.7206 25 13.1022 25 13.5C25 13.8978 24.842 14.2794 24.5607 14.5607C24.2794 14.842 23.8978 15 23.5 15H19.5C19.1022 15 18.7206 14.842 18.4393 14.5607C18.158 14.2794 18 13.8978 18 13.5ZM19.5 20H23.5C23.8978 20 24.2794 19.842 24.5607 19.5607C24.842 19.2794 25 18.8978 25 18.5C25 18.1022 24.842 17.7206 24.5607 17.4393C24.2794 17.158 23.8978 17 23.5 17H19.5C19.1022 17 18.7206 17.158 18.4393 17.4393C18.158 17.7206 18 18.1022 18 18.5C18 18.8978 18.158 19.2794 18.4393 19.5607C18.7206 19.842 19.1022 20 19.5 20ZM29.5 7V25C29.5 25.663 29.2366 26.2989 28.7678 26.7678C28.2989 27.2366 27.663 27.5 27 27.5H5C4.33696 27.5 3.70107 27.2366 3.23223 26.7678C2.76339 26.2989 2.5 25.663 2.5 25V7C2.5 6.33696 2.76339 5.70107 3.23223 5.23223C3.70107 4.76339 4.33696 4.5 5 4.5H27C27.663 4.5 28.2989 4.76339 28.7678 5.23223C29.2366 5.70107 29.5 6.33696 29.5 7ZM26.5 7.5H5.5V24.5H26.5V7.5ZM6.785 19.9212C7.14492 19.0693 7.71471 18.3223 8.44125 17.75C7.92623 17.0845 7.60813 16.288 7.52306 15.4508C7.43798 14.6136 7.58935 13.7694 7.95997 13.0139C8.33059 12.2584 8.90562 11.622 9.61975 11.1769C10.3339 10.7318 11.1585 10.4959 12 10.4959C12.8415 10.4959 13.6661 10.7318 14.3802 11.1769C15.0944 11.622 15.6694 12.2584 16.04 13.0139C16.4106 13.7694 16.562 14.6136 16.4769 15.4508C16.3919 16.288 16.0738 17.0845 15.5588 17.75C16.2857 18.3222 16.8559 19.0692 17.2162 19.9212C17.3697 20.2884 17.3711 20.7015 17.22 21.0697C17.0689 21.4378 16.7778 21.7309 16.4106 21.8844C16.0435 22.0379 15.6304 22.0392 15.2622 21.8881C14.8941 21.7371 14.601 21.4459 14.4475 21.0788C14.06 20.1488 13.0525 19.5 12 19.5C10.9475 19.5 9.94125 20.15 9.55125 21.0788C9.47933 21.2662 9.37052 21.4373 9.23126 21.5819C9.092 21.7265 8.92513 21.8417 8.74054 21.9206C8.55594 21.9995 8.35738 22.0406 8.15662 22.0414C7.95587 22.0422 7.75699 22.0026 7.57179 21.9251C7.38659 21.8476 7.21883 21.7338 7.07846 21.5902C6.93808 21.4467 6.82794 21.2765 6.75457 21.0896C6.6812 20.9027 6.64608 20.703 6.65131 20.5023C6.65654 20.3017 6.702 20.104 6.785 19.9212ZM10.5 15C10.5 15.2967 10.588 15.5867 10.7528 15.8334C10.9176 16.08 11.1519 16.2723 11.426 16.3858C11.7001 16.4993 12.0017 16.5291 12.2926 16.4712C12.5836 16.4133 12.8509 16.2704 13.0607 16.0607C13.2704 15.8509 13.4133 15.5836 13.4712 15.2926C13.5291 15.0017 13.4994 14.7001 13.3858 14.426C13.2723 14.1519 13.08 13.9176 12.8334 13.7528C12.5867 13.588 12.2967 13.5 12 13.5C11.6022 13.5 11.2206 13.658 10.9393 13.9393C10.658 14.2206 10.5 14.6022 10.5 15Z" fill="#42BFB0"/>
</svg>
