<svg width="30" height="30" viewBox="0 0 30 30" fill="none" xmlns="http://www.w3.org/2000/svg">
<path d="M11.4977 24.9999C11.4977 25.3977 11.3396 25.7792 11.0583 26.0605C10.777 26.3418 10.3955 26.4999 9.99766 26.4999H3.99766C3.38348 26.4995 2.78022 26.3374 2.24848 26.0301C1.71674 25.7227 1.27524 25.2808 0.968326 24.7488C0.661414 24.2169 0.499897 23.6135 0.5 22.9993C0.500103 22.3851 0.661821 21.7818 0.968912 21.2499L4.65016 14.8899L4.05516 15.0486C3.86345 15.1042 3.66258 15.1209 3.46431 15.0979C3.26605 15.0748 3.07438 15.0124 2.90054 14.9143C2.7267 14.8162 2.57419 14.6844 2.45193 14.5267C2.32967 14.3689 2.24013 14.1883 2.18856 13.9955C2.13698 13.8027 2.12441 13.6015 2.15158 13.4037C2.17874 13.206 2.2451 13.0157 2.34677 12.8439C2.44843 12.6721 2.58335 12.5224 2.74363 12.4034C2.9039 12.2845 3.08631 12.1987 3.28016 12.1511L7.37641 11.0549C7.76047 10.9521 8.1696 11.0061 8.51391 11.2048C8.85822 11.4036 9.10954 11.7309 9.21266 12.1149L10.3114 16.2111C10.3689 16.4033 10.3872 16.605 10.3654 16.8044C10.3435 17.0037 10.2819 17.1967 10.1842 17.3718C10.0865 17.547 9.9546 17.7007 9.79642 17.824C9.63823 17.9473 9.45692 18.0376 9.26322 18.0896C9.06951 18.1416 8.86735 18.1543 8.66868 18.1268C8.47001 18.0993 8.27888 18.0322 8.10658 17.9296C7.93428 17.8269 7.78431 17.6907 7.66555 17.5291C7.54679 17.3675 7.46165 17.1837 7.41516 16.9886L7.25766 16.3749L3.57016 22.7499C3.5265 22.8255 3.5034 22.9112 3.50316 22.9985C3.50291 23.0858 3.52553 23.1716 3.56877 23.2475C3.612 23.3233 3.67434 23.3865 3.74959 23.4308C3.82483 23.4751 3.91036 23.4989 3.99766 23.4999H9.99766C10.3955 23.4999 10.777 23.6579 11.0583 23.9392C11.3396 24.2205 11.4977 24.602 11.4977 24.9999ZM14.9977 3.49986C15.0857 3.49824 15.1725 3.52066 15.2487 3.56471C15.3249 3.60877 15.3876 3.67278 15.4302 3.74986L19.1114 10.1086L18.5177 9.94986C18.3249 9.89115 18.1223 9.87188 17.9219 9.89321C17.7215 9.91454 17.5275 9.97602 17.3514 10.074C17.1753 10.172 17.0207 10.3044 16.8969 10.4634C16.7732 10.6225 16.6827 10.8048 16.6309 10.9995C16.5792 11.1943 16.5672 11.3975 16.5957 11.597C16.6242 11.7965 16.6926 11.9882 16.7969 12.1606C16.9011 12.3331 17.039 12.4828 17.2024 12.6008C17.3657 12.7188 17.5512 12.8026 17.7477 12.8474L21.8439 13.9461C22.228 14.0488 22.6371 13.9949 22.9814 13.7961C23.3257 13.5974 23.577 13.2701 23.6802 12.8861L24.7727 8.78736C24.8758 8.4028 24.8219 7.99303 24.6229 7.64819C24.5243 7.47745 24.3931 7.32779 24.2367 7.20775C24.0803 7.08772 23.9018 6.99966 23.7114 6.94861C23.3268 6.84551 22.9171 6.8994 22.5722 7.09842C22.2274 7.29744 21.9758 7.6253 21.8727 8.00986L21.7089 8.61736L18.0264 2.24986C17.7189 1.71889 17.2772 1.27809 16.7456 0.97165C16.2141 0.665212 15.6112 0.503906 14.9977 0.503906C14.3841 0.503906 13.7813 0.665212 13.2497 0.97165C12.7181 1.27809 12.2764 1.71889 11.9689 2.24986L9.07391 7.24986C8.96772 7.42062 8.89694 7.61098 8.86579 7.80963C8.83463 8.00828 8.84374 8.21117 8.89256 8.40624C8.94139 8.6013 9.02893 8.78456 9.15 8.94512C9.27106 9.10567 9.42317 9.24024 9.59728 9.34084C9.77139 9.44143 9.96395 9.50599 10.1635 9.53068C10.3631 9.55537 10.5656 9.53968 10.7589 9.48455C10.9523 9.42942 11.1326 9.33597 11.2892 9.20976C11.4457 9.08354 11.5753 8.92715 11.6702 8.74986L14.5652 3.74986C14.6077 3.67278 14.6704 3.60877 14.7466 3.56471C14.8229 3.52066 14.9096 3.49824 14.9977 3.49986ZM29.0214 21.2499L26.1289 16.2499C26.034 16.0726 25.9045 15.9162 25.7479 15.79C25.5914 15.6638 25.4111 15.5703 25.2177 15.5152C25.0243 15.46 24.8218 15.4444 24.6223 15.469C24.4227 15.4937 24.2301 15.5583 24.056 15.6589C23.8819 15.7595 23.7298 15.8941 23.6087 16.0546C23.4877 16.2152 23.4001 16.3984 23.3513 16.5935C23.3025 16.7885 23.2934 16.9914 23.3245 17.1901C23.3557 17.3887 23.4265 17.5791 23.5327 17.7499L26.4252 22.7499C26.469 22.8258 26.4921 22.912 26.4921 22.9997C26.4922 23.0875 26.4691 23.1736 26.4253 23.2496C26.3815 23.3256 26.3184 23.3888 26.2425 23.4327C26.1665 23.4766 26.0804 23.4998 25.9927 23.4999H18.6227L19.0614 23.0611C19.2009 22.9216 19.3116 22.7559 19.3871 22.5736C19.4626 22.3913 19.5015 22.1959 19.5015 21.9986C19.5015 21.8013 19.4626 21.6059 19.3871 21.4236C19.3116 21.2413 19.2009 21.0756 19.0614 20.9361C18.9219 20.7966 18.7562 20.6859 18.5739 20.6104C18.3916 20.5349 18.1962 20.496 17.9989 20.496C17.8016 20.496 17.6062 20.5349 17.4239 20.6104C17.2416 20.6859 17.0759 20.7966 16.9364 20.9361L13.9364 23.9361C13.7966 24.0755 13.6856 24.2411 13.6099 24.4234C13.5342 24.6057 13.4952 24.8012 13.4952 24.9986C13.4952 25.196 13.5342 25.3915 13.6099 25.5738C13.6856 25.7562 13.7966 25.9218 13.9364 26.0611L16.9364 29.0611C17.0759 29.2006 17.2416 29.3113 17.4239 29.3868C17.6062 29.4623 17.8016 29.5012 17.9989 29.5012C18.1962 29.5012 18.3916 29.4623 18.5739 29.3868C18.7562 29.3113 18.9219 29.2006 19.0614 29.0611C19.2009 28.9216 19.3116 28.7559 19.3871 28.5736C19.4626 28.3913 19.5015 28.1959 19.5015 27.9986C19.5015 27.8013 19.4626 27.6059 19.3871 27.4236C19.3116 27.2413 19.2009 27.0756 19.0614 26.9361L18.6227 26.4999H25.9977C26.6118 26.4995 27.2151 26.3374 27.7468 26.0301C28.2786 25.7227 28.7201 25.2808 29.027 24.7488C29.3339 24.2169 29.4954 23.6135 29.4953 22.9993C29.4952 22.3851 29.3335 21.7818 29.0264 21.2499H29.0214Z" fill="white"/>
<path d="M11.4977 24.9999C11.4977 25.3977 11.3396 25.7792 11.0583 26.0605C10.777 26.3418 10.3955 26.4999 9.99766 26.4999H3.99766C3.38348 26.4995 2.78022 26.3374 2.24848 26.0301C1.71674 25.7227 1.27524 25.2808 0.968326 24.7488C0.661414 24.2169 0.499897 23.6135 0.5 22.9993C0.500103 22.3851 0.661821 21.7818 0.968912 21.2499L4.65016 14.8899L4.05516 15.0486C3.86345 15.1042 3.66258 15.1209 3.46431 15.0979C3.26605 15.0748 3.07438 15.0124 2.90054 14.9143C2.7267 14.8162 2.57419 14.6844 2.45193 14.5267C2.32967 14.3689 2.24013 14.1883 2.18856 13.9955C2.13698 13.8027 2.12441 13.6015 2.15158 13.4037C2.17874 13.206 2.2451 13.0157 2.34677 12.8439C2.44843 12.6721 2.58335 12.5224 2.74363 12.4034C2.9039 12.2845 3.08631 12.1987 3.28016 12.1511L7.37641 11.0549C7.76047 10.9521 8.1696 11.0061 8.51391 11.2048C8.85822 11.4036 9.10954 11.7309 9.21266 12.1149L10.3114 16.2111C10.3689 16.4033 10.3872 16.605 10.3654 16.8044C10.3435 17.0037 10.2819 17.1967 10.1842 17.3718C10.0865 17.547 9.9546 17.7007 9.79642 17.824C9.63823 17.9473 9.45692 18.0376 9.26322 18.0896C9.06951 18.1416 8.86735 18.1543 8.66868 18.1268C8.47001 18.0993 8.27888 18.0322 8.10658 17.9296C7.93428 17.8269 7.78431 17.6907 7.66555 17.5291C7.54679 17.3675 7.46165 17.1837 7.41516 16.9886L7.25766 16.3749L3.57016 22.7499C3.5265 22.8255 3.5034 22.9112 3.50316 22.9985C3.50291 23.0858 3.52553 23.1716 3.56877 23.2475C3.612 23.3233 3.67434 23.3865 3.74959 23.4308C3.82483 23.4751 3.91036 23.4989 3.99766 23.4999H9.99766C10.3955 23.4999 10.777 23.6579 11.0583 23.9392C11.3396 24.2205 11.4977 24.602 11.4977 24.9999ZM14.9977 3.49986C15.0857 3.49824 15.1725 3.52066 15.2487 3.56471C15.3249 3.60877 15.3876 3.67278 15.4302 3.74986L19.1114 10.1086L18.5177 9.94986C18.3249 9.89115 18.1223 9.87188 17.9219 9.89321C17.7215 9.91454 17.5275 9.97602 17.3514 10.074C17.1753 10.172 17.0207 10.3044 16.8969 10.4634C16.7732 10.6225 16.6827 10.8048 16.6309 10.9995C16.5792 11.1943 16.5672 11.3975 16.5957 11.597C16.6242 11.7965 16.6926 11.9882 16.7969 12.1606C16.9011 12.3331 17.039 12.4828 17.2024 12.6008C17.3657 12.7188 17.5512 12.8026 17.7477 12.8474L21.8439 13.9461C22.228 14.0488 22.6371 13.9949 22.9814 13.7961C23.3257 13.5974 23.577 13.2701 23.6802 12.8861L24.7727 8.78736C24.8758 8.4028 24.8219 7.99303 24.6229 7.64819C24.5243 7.47745 24.3931 7.32779 24.2367 7.20775C24.0803 7.08772 23.9018 6.99966 23.7114 6.94861C23.3268 6.84551 22.9171 6.8994 22.5722 7.09842C22.2274 7.29744 21.9758 7.6253 21.8727 8.00986L21.7089 8.61736L18.0264 2.24986C17.7189 1.71889 17.2772 1.27809 16.7456 0.97165C16.2141 0.665212 15.6112 0.503906 14.9977 0.503906C14.3841 0.503906 13.7813 0.665212 13.2497 0.97165C12.7181 1.27809 12.2764 1.71889 11.9689 2.24986L9.07391 7.24986C8.96772 7.42062 8.89694 7.61098 8.86579 7.80963C8.83463 8.00828 8.84374 8.21117 8.89256 8.40624C8.94139 8.6013 9.02893 8.78456 9.15 8.94512C9.27106 9.10567 9.42317 9.24024 9.59728 9.34084C9.77139 9.44143 9.96395 9.50599 10.1635 9.53068C10.3631 9.55537 10.5656 9.53968 10.7589 9.48455C10.9523 9.42942 11.1326 9.33597 11.2892 9.20976C11.4457 9.08354 11.5753 8.92715 11.6702 8.74986L14.5652 3.74986C14.6077 3.67278 14.6704 3.60877 14.7466 3.56471C14.8229 3.52066 14.9096 3.49824 14.9977 3.49986ZM29.0214 21.2499L26.1289 16.2499C26.034 16.0726 25.9045 15.9162 25.7479 15.79C25.5914 15.6638 25.4111 15.5703 25.2177 15.5152C25.0243 15.46 24.8218 15.4444 24.6223 15.469C24.4227 15.4937 24.2301 15.5583 24.056 15.6589C23.8819 15.7595 23.7298 15.8941 23.6087 16.0546C23.4877 16.2152 23.4001 16.3984 23.3513 16.5935C23.3025 16.7885 23.2934 16.9914 23.3245 17.1901C23.3557 17.3887 23.4265 17.5791 23.5327 17.7499L26.4252 22.7499C26.469 22.8258 26.4921 22.912 26.4921 22.9997C26.4922 23.0875 26.4691 23.1736 26.4253 23.2496C26.3815 23.3256 26.3184 23.3888 26.2425 23.4327C26.1665 23.4766 26.0804 23.4998 25.9927 23.4999H18.6227L19.0614 23.0611C19.2009 22.9216 19.3116 22.7559 19.3871 22.5736C19.4626 22.3913 19.5015 22.1959 19.5015 21.9986C19.5015 21.8013 19.4626 21.6059 19.3871 21.4236C19.3116 21.2413 19.2009 21.0756 19.0614 20.9361C18.9219 20.7966 18.7562 20.6859 18.5739 20.6104C18.3916 20.5349 18.1962 20.496 17.9989 20.496C17.8016 20.496 17.6062 20.5349 17.4239 20.6104C17.2416 20.6859 17.0759 20.7966 16.9364 20.9361L13.9364 23.9361C13.7966 24.0755 13.6856 24.2411 13.6099 24.4234C13.5342 24.6057 13.4952 24.8012 13.4952 24.9986C13.4952 25.196 13.5342 25.3915 13.6099 25.5738C13.6856 25.7562 13.7966 25.9218 13.9364 26.0611L16.9364 29.0611C17.0759 29.2006 17.2416 29.3113 17.4239 29.3868C17.6062 29.4623 17.8016 29.5012 17.9989 29.5012C18.1962 29.5012 18.3916 29.4623 18.5739 29.3868C18.7562 29.3113 18.9219 29.2006 19.0614 29.0611C19.2009 28.9216 19.3116 28.7559 19.3871 28.5736C19.4626 28.3913 19.5015 28.1959 19.5015 27.9986C19.5015 27.8013 19.4626 27.6059 19.3871 27.4236C19.3116 27.2413 19.2009 27.0756 19.0614 26.9361L18.6227 26.4999H25.9977C26.6118 26.4995 27.2151 26.3374 27.7468 26.0301C28.2786 25.7227 28.7201 25.2808 29.027 24.7488C29.3339 24.2169 29.4954 23.6135 29.4953 22.9993C29.4952 22.3851 29.3335 21.7818 29.0264 21.2499H29.0214Z" fill="#027A48"/>
</svg>
