<svg width="32" height="32" viewBox="0 0 32 32" fill="none" xmlns="http://www.w3.org/2000/svg">
<path d="M21.5 19.4997C21.5 19.8975 21.342 20.2791 21.0607 20.5604C20.7794 20.8417 20.3978 20.9997 20 20.9997H12C11.6022 20.9997 11.2206 20.8417 10.9393 20.5604C10.658 20.2791 10.5 19.8975 10.5 19.4997C10.5 19.1019 10.658 18.7204 10.9393 18.4391C11.2206 18.1578 11.6022 17.9997 12 17.9997H20C20.3978 17.9997 20.7794 18.1578 21.0607 18.4391C21.342 18.7204 21.5 19.1019 21.5 19.4997ZM20 12.9997H12C11.6022 12.9997 11.2206 13.1578 10.9393 13.4391C10.658 13.7204 10.5 14.1019 10.5 14.4997C10.5 14.8975 10.658 15.2791 10.9393 15.5604C11.2206 15.8417 11.6022 15.9997 12 15.9997H20C20.3978 15.9997 20.7794 15.8417 21.0607 15.5604C21.342 15.2791 21.5 14.8975 21.5 14.4997C21.5 14.1019 21.342 13.7204 21.0607 13.4391C20.7794 13.1578 20.3978 12.9997 20 12.9997ZM27.5 5.99972V26.9997C27.5 27.6628 27.2366 28.2986 26.7678 28.7675C26.2989 29.2363 25.663 29.4997 25 29.4997H7C6.33696 29.4997 5.70107 29.2363 5.23223 28.7675C4.76339 28.2986 4.5 27.6628 4.5 26.9997V5.99972C4.5 5.33668 4.76339 4.7008 5.23223 4.23196C5.70107 3.76311 6.33696 3.49972 7 3.49972H11.3162C11.9216 2.86758 12.6487 2.36452 13.4536 2.02085C14.2586 1.67717 15.1248 1.5 16 1.5C16.8752 1.5 17.7414 1.67717 18.5464 2.02085C19.3513 2.36452 20.0784 2.86758 20.6838 3.49972H25C25.663 3.49972 26.2989 3.76311 26.7678 4.23196C27.2366 4.7008 27.5 5.33668 27.5 5.99972ZM16 4.49972C15.1584 4.49981 14.3451 4.80312 13.7089 5.35409C13.0728 5.90506 12.6565 6.66679 12.5363 7.49972H19.4638C19.3435 6.66679 18.9272 5.90506 18.2911 5.35409C17.6549 4.80312 16.8416 4.49981 16 4.49972ZM24.5 6.49972H22.3237C22.4404 6.9912 22.4996 7.49458 22.5 7.99972V8.99972C22.5 9.39755 22.342 9.77908 22.0607 10.0604C21.7794 10.3417 21.3978 10.4997 21 10.4997H11C10.6022 10.4997 10.2206 10.3417 9.93934 10.0604C9.65804 9.77908 9.5 9.39755 9.5 8.99972V7.99972C9.50041 7.49458 9.55956 6.9912 9.67625 6.49972H7.5V26.4997H24.5V6.49972Z" fill="#88613D"/>
</svg>
