<svg width="15" height="14" viewBox="0 0 15 14" fill="none" xmlns="http://www.w3.org/2000/svg">
<path d="M14.8988 7.55157C14.832 7.72679 14.7341 7.88591 14.6108 8.01983L10.2018 12.8271C9.95324 13.0979 9.61606 13.25 9.26448 13.25C8.9129 13.25 8.57572 13.0979 8.32712 12.8271C8.07851 12.5563 7.93885 12.189 7.93885 11.806C7.93885 11.4231 8.07851 11.0558 8.32712 10.785L10.4764 8.44145L1.32334 8.44145C0.972368 8.44145 0.635772 8.28959 0.387597 8.01926C0.139423 7.74894 -2.56485e-07 7.3823 -2.73196e-07 7C-2.89907e-07 6.6177 0.139423 6.25106 0.387597 5.98074C0.635771 5.71041 0.972368 5.55855 1.32334 5.55855L10.4764 5.55855L8.32491 3.21498C8.07631 2.94419 7.93664 2.57691 7.93664 2.19395C7.93664 1.81099 8.07631 1.44372 8.32491 1.17292C8.57352 0.902131 8.9107 0.750001 9.26228 0.750001C9.61386 0.750001 9.95104 0.902131 10.1996 1.17292L14.6108 5.97777C14.7341 6.11169 14.832 6.27081 14.8988 6.44602C14.9656 6.62123 15 6.80908 15 6.9988C15 7.18851 14.9656 7.37636 14.8988 7.55157Z" fill="#101828"/>
</svg>
