<svg width="32" height="32" viewBox="0 0 32 32" fill="none" xmlns="http://www.w3.org/2000/svg">
<path d="M30 13.5H28.975L25.635 5.985C25.4386 5.54295 25.1182 5.16737 24.7126 4.90379C24.307 4.6402 23.8337 4.49994 23.35 4.5H8.65C8.16629 4.49994 7.69295 4.6402 7.28737 4.90379C6.88179 5.16737 6.56139 5.54295 6.365 5.985L3.025 13.5H2C1.60218 13.5 1.22064 13.658 0.93934 13.9393C0.658035 14.2206 0.5 14.6022 0.5 15C0.5 15.3978 0.658035 15.7794 0.93934 16.0607C1.22064 16.342 1.60218 16.5 2 16.5H2.5V26C2.5 26.663 2.76339 27.2989 3.23223 27.7678C3.70107 28.2366 4.33696 28.5 5 28.5H8C8.66304 28.5 9.29893 28.2366 9.76777 27.7678C10.2366 27.2989 10.5 26.663 10.5 26V23.5H21.5V26C21.5 26.663 21.7634 27.2989 22.2322 27.7678C22.7011 28.2366 23.337 28.5 24 28.5H27C27.663 28.5 28.2989 28.2366 28.7678 27.7678C29.2366 27.2989 29.5 26.663 29.5 26V16.5H30C30.3978 16.5 30.7794 16.342 31.0607 16.0607C31.342 15.7794 31.5 15.3978 31.5 15C31.5 14.6022 31.342 14.2206 31.0607 13.9393C30.7794 13.658 30.3978 13.5 30 13.5ZM8.975 7.5H23.025L25.6912 13.5H6.30875L8.975 7.5ZM7.5 25.5H5.5V23.5H7.5V25.5ZM24.5 25.5V23.5H26.5V25.5H24.5ZM26.5 20.5H5.5V16.5H26.5V20.5Z" fill="#175CD3"/>
</svg>
