<svg width="32" height="32" viewBox="0 0 32 32" fill="none" xmlns="http://www.w3.org/2000/svg">
<path d="M28.7678 26.0489C28.7678 25.42 28.1389 24.8809 27.51 24.8809C25.3537 25.1505 22.5685 25.7794 21.131 23.6231C24.5451 22.1856 22.7482 19.9394 20.7716 18.2324C25.7131 10.7752 16.1895 -0.63512 8.1034 4.12668C-0.252206 8.88848 5.3182 22.9043 14.3926 22.0957C14.752 24.7911 15.9199 26.8575 18.795 24.9708C20.1427 27.1271 22.6583 28.2951 25.2638 27.9357C26.342 27.6661 29.217 27.9357 28.9475 26.1388L28.7678 26.0489ZM6.84557 9.87678C9.45108 1.25163 21.4903 7.90018 19.0645 15.1776C16.3692 23.8028 4.41975 17.1542 6.84557 9.87678ZM17.1778 22.6348L16.9082 21.5567C17.627 21.2871 18.3458 20.8379 18.9747 20.3887L19.7833 21.1973L17.1778 22.6348Z" fill="#D94295"/>
</svg>
