<svg width="32" height="32" viewBox="0 0 32 32" fill="none" xmlns="http://www.w3.org/2000/svg">
<g clip-path="url(#clip0_2_4754)">
<path d="M31.2724 13.146L23.3386 5.15602C20.9926 2.81485 17.8136 1.5 14.4993 1.5C11.1849 1.5 8.00591 2.81485 5.65988 5.15602L5.64363 5.17352L3.92113 6.95102C3.64431 7.23679 3.49235 7.62082 3.49868 8.01863C3.50501 8.41645 3.66911 8.79545 3.95488 9.07227C4.24065 9.34909 4.62468 9.50105 5.02249 9.49472C5.4203 9.48839 5.79931 9.32429 6.07613 9.03852L7.78988 7.26977C8.35723 6.70259 8.99443 6.20989 9.68613 5.80352L14.8749 10.9998L3.23113 22.6448C2.99887 22.8769 2.81463 23.1526 2.68893 23.456C2.56323 23.7593 2.49854 24.0845 2.49854 24.4129C2.49854 24.7413 2.56323 25.0665 2.68893 25.3698C2.81463 25.6732 2.99887 25.9489 3.23113 26.181L5.81738 28.7673C6.2862 29.2359 6.92197 29.4992 7.58488 29.4992C8.24779 29.4992 8.88356 29.2359 9.35238 28.7673L20.9999 17.1248L21.1886 17.3135L24.1449 20.271C24.377 20.5033 24.6527 20.6875 24.9561 20.8132C25.2594 20.9389 25.5846 21.0036 25.913 21.0036C26.2414 21.0036 26.5666 20.9389 26.8699 20.8132C27.1733 20.6875 27.449 20.5033 27.6811 20.271L31.2674 16.6835C31.5001 16.4517 31.6849 16.1762 31.8112 15.8729C31.9374 15.5696 32.0026 15.2443 32.0031 14.9158C32.0036 14.5873 31.9393 14.2619 31.8139 13.9582C31.6885 13.6545 31.5045 13.3785 31.2724 13.146ZM7.58488 26.2923L5.70988 24.4173L13.4999 16.6248L15.3749 18.4998L7.58488 26.2923ZM17.4999 16.3748L15.6249 14.4998L18.0636 12.061C18.2035 11.9217 18.3144 11.7561 18.3901 11.5737C18.4658 11.3914 18.5048 11.1959 18.5048 10.9985C18.5048 10.8011 18.4658 10.6056 18.3901 10.4233C18.3144 10.241 18.2035 10.0754 18.0636 9.93602L12.7799 4.65477C14.2926 4.37521 15.8507 4.4675 17.3198 4.92369C18.789 5.37988 20.1253 6.1863 21.2136 7.27352L25.1436 11.2323L22.2499 14.1248L22.0611 13.936C21.9218 13.7962 21.7562 13.6852 21.5739 13.6095C21.3915 13.5338 21.196 13.4948 20.9986 13.4948C20.8012 13.4948 20.6057 13.5338 20.4234 13.6095C20.2411 13.6852 20.0755 13.7962 19.9361 13.936L17.4999 16.3748ZM25.9149 17.7885L24.3749 16.2498L27.2611 13.3635L28.7986 14.9123L25.9149 17.7885Z" fill="#667085"/>
</g>
<defs>
<clipPath id="clip0_2_4754">
<rect width="32" height="32" fill="white"/>
</clipPath>
</defs>
</svg>
