<svg width="32" height="32" viewBox="0 0 32 32" fill="none" xmlns="http://www.w3.org/2000/svg">
<path d="M26.4353 4.41518L10.1541 1.54018C9.83067 1.48297 9.49918 1.49004 9.17852 1.56098C8.85786 1.63192 8.55433 1.76534 8.28525 1.95362C8.01617 2.14191 7.78683 2.38136 7.61032 2.65831C7.43382 2.93525 7.31361 3.24426 7.25656 3.56768L3.53781 24.6927C3.423 25.3454 3.57207 26.017 3.95226 26.5599C4.33245 27.1028 4.91265 27.4724 5.56531 27.5877L21.8466 30.4627C21.9918 30.4885 22.139 30.5015 22.2866 30.5014C22.875 30.5017 23.4447 30.2944 23.8954 29.916C24.3461 29.5376 24.6488 29.0123 24.7503 28.4327L28.4691 7.30768C28.5255 6.98421 28.5176 6.6528 28.446 6.33237C28.3743 6.01194 28.2402 5.70876 28.0513 5.44016C27.8625 5.17156 27.6226 4.94279 27.3453 4.76692C27.068 4.59106 26.7588 4.47153 26.4353 4.41518ZM21.8753 27.4202L6.57906 24.7189L10.1253 4.58018L25.4216 7.28143L21.8753 27.4202ZM11.4878 8.37518C11.557 7.98353 11.7789 7.63539 12.1047 7.40731C12.4306 7.17923 12.8336 7.08989 13.2253 7.15893L21.6253 8.64268C22.001 8.70028 22.3408 8.89833 22.576 9.1968C22.8113 9.49528 22.9245 9.87193 22.8927 10.2506C22.861 10.6294 22.6867 10.9819 22.405 11.2371C22.1233 11.4922 21.7553 11.6309 21.3753 11.6252C21.2873 11.625 21.1995 11.6175 21.1128 11.6027L12.7041 10.1127C12.3124 10.0435 11.9643 9.82157 11.7362 9.49575C11.5081 9.16993 11.4188 8.76686 11.4878 8.37518ZM10.6253 13.2989C10.6596 13.1049 10.7317 12.9195 10.8377 12.7533C10.9436 12.5872 11.0812 12.4435 11.2427 12.3306C11.4042 12.2176 11.5863 12.1376 11.7787 12.095C11.9711 12.0525 12.17 12.0483 12.3641 12.0827L20.7666 13.5677C21.1354 13.6341 21.466 13.8362 21.6933 14.1341C21.9206 14.4321 22.0281 14.8043 21.9947 15.1776C21.9613 15.5508 21.7894 15.8981 21.5129 16.151C21.2363 16.4038 20.8751 16.544 20.5003 16.5439C20.4123 16.5438 20.3245 16.5363 20.2378 16.5214L11.8366 15.0364C11.4458 14.9661 11.0989 14.7437 10.8719 14.418C10.6448 14.0923 10.5562 13.6899 10.6253 13.2989ZM9.75031 18.2227C9.81951 17.831 10.0414 17.4829 10.3672 17.2548C10.6931 17.0267 11.0961 16.9374 11.4878 17.0064L15.6928 17.7502C16.0625 17.8149 16.3945 18.016 16.6232 18.3135C16.852 18.6111 16.9608 18.9836 16.9283 19.3575C16.8959 19.7315 16.7244 20.0796 16.4477 20.3333C16.1711 20.5869 15.8094 20.7277 15.4341 20.7277C15.346 20.7277 15.2582 20.7198 15.1716 20.7039L10.9703 19.9627C10.7758 19.9289 10.5899 19.857 10.4232 19.7512C10.2565 19.6453 10.1124 19.5076 9.99904 19.346C9.88569 19.1843 9.80538 19.0019 9.76269 18.8091C9.72001 18.6164 9.7158 18.4171 9.75031 18.2227Z" fill="#A456D4"/>
</svg>
