<svg width="80" height="80" viewBox="0 0 80 80" fill="none" xmlns="http://www.w3.org/2000/svg">
<g opacity="0.8">
<mask id="path-1-inside-1_911_18859" fill="white">
<path fill-rule="evenodd" clip-rule="evenodd" d="M40 80C62.0914 80 80 62.0914 80 40C80 17.9086 62.0914 0 40 0C17.9086 0 0 17.9086 0 40C0 62.0914 17.9086 80 40 80ZM55.7778 40L34 26V54L55.7778 40Z"/>
</mask>
<path fill-rule="evenodd" clip-rule="evenodd" d="M40 80C62.0914 80 80 62.0914 80 40C80 17.9086 62.0914 0 40 0C17.9086 0 0 17.9086 0 40C0 62.0914 17.9086 80 40 80ZM55.7778 40L34 26V54L55.7778 40Z" fill="#FFFEFD"/>
<path d="M34 26L34.5408 25.1588L33 24.1683V26H34ZM55.7778 40L56.3185 40.8412L57.627 40L56.3185 39.1588L55.7778 40ZM34 54H33V55.8317L34.5408 54.8412L34 54ZM79 40C79 61.5391 61.5391 79 40 79V81C62.6437 81 81 62.6437 81 40H79ZM40 1C61.5391 1 79 18.4609 79 40H81C81 17.3563 62.6437 -1 40 -1V1ZM1 40C1 18.4609 18.4609 1 40 1V-1C17.3563 -1 -1 17.3563 -1 40H1ZM40 79C18.4609 79 1 61.5391 1 40H-1C-1 62.6437 17.3563 81 40 81V79ZM33.4592 26.8412L55.237 40.8412L56.3185 39.1588L34.5408 25.1588L33.4592 26.8412ZM35 54V26H33V54H35ZM55.237 39.1588L33.4592 53.1588L34.5408 54.8412L56.3185 40.8412L55.237 39.1588Z" fill="#FFFEFD" mask="url(#path-1-inside-1_911_18859)"/>
</g>
</svg>
